<?xml version="1.0" encoding="utf-8" standalone="no"?>
<!DOCTYPE svg PUBLIC "-//W3C//DTD SVG 1.1//EN"
  "http://www.w3.org/Graphics/SVG/1.1/DTD/svg11.dtd">
<svg xmlns:xlink="http://www.w3.org/1999/xlink" width="548.382877pt" height="267.59952pt" viewBox="0 0 548.382877 267.59952" xmlns="http://www.w3.org/2000/svg" version="1.1">
 <metadata>
  <rdf:RDF xmlns:dc="http://purl.org/dc/elements/1.1/" xmlns:cc="http://creativecommons.org/ns#" xmlns:rdf="http://www.w3.org/1999/02/22-rdf-syntax-ns#">
   <cc:Work>
    <dc:type rdf:resource="http://purl.org/dc/dcmitype/StillImage"/>
    <dc:date>2026-04-29T16:45:43.454557</dc:date>
    <dc:format>image/svg+xml</dc:format>
    <dc:creator>
     <cc:Agent>
      <dc:title>Matplotlib v3.10.9, https://matplotlib.org/</dc:title>
     </cc:Agent>
    </dc:creator>
   </cc:Work>
  </rdf:RDF>
 </metadata>
 <defs>
  <style type="text/css">*{stroke-linejoin: round; stroke-linecap: butt}</style>
 </defs>
 <g id="figure_1">
  <g id="patch_1">
   <path d="M 0 267.59952 
L 548.382877 267.59952 
L 548.382877 0 
L 0 0 
L 0 267.59952 
z
" style="fill: none"/>
  </g>
  <g id="axes_1">
   <g id="patch_2">
    <path d="M 37.330781 232.946708 
L 540.647962 232.946708 
L 540.647962 25.558281 
L 37.330781 25.558281 
L 37.330781 232.946708 
z
" style="fill: none"/>
   </g>
   <g id="matplotlib.axis_1">
    <g id="xtick_1">
     <g id="line2d_1">
      <path d="M 60.208835 232.946708 
L 60.208835 25.558281 
" clip-path="url(#pb35e499a01)" style="fill: none; stroke: #d8d2c4; stroke-opacity: 0.7; stroke-width: 0.5; stroke-linecap: square"/>
     </g>
     <g id="line2d_2">
      <defs>
       <path id="m4ff706b13a" d="M 0 0 
L 0 3.5 
" style="stroke: #6e6a64; stroke-width: 0.8"/>
      </defs>
      <g>
       <use xlink:href="#m4ff706b13a" x="60.208835" y="232.946708" style="fill: #6e6a64; stroke: #6e6a64; stroke-width: 0.8"/>
      </g>
     </g>
     <g id="text_1">
      <!-- 0 -->
      <g style="fill: #6e6a64" transform="translate(57.663835 246.025458) scale(0.08 -0.08)">
       <defs>
        <path id="DejaVuSans-30" d="M 2034 4250 
Q 1547 4250 1301 3770 
Q 1056 3291 1056 2328 
Q 1056 1369 1301 889 
Q 1547 409 2034 409 
Q 2525 409 2770 889 
Q 3016 1369 3016 2328 
Q 3016 3291 2770 3770 
Q 2525 4250 2034 4250 
z
M 2034 4750 
Q 2819 4750 3233 4129 
Q 3647 3509 3647 2328 
Q 3647 1150 3233 529 
Q 2819 -91 2034 -91 
Q 1250 -91 836 529 
Q 422 1150 422 2328 
Q 422 3509 836 4129 
Q 1250 4750 2034 4750 
z
" transform="scale(0.015625)"/>
       </defs>
       <use xlink:href="#DejaVuSans-30"/>
      </g>
     </g>
    </g>
    <g id="xtick_2">
     <g id="line2d_3">
      <path d="M 139.098675 232.946708 
L 139.098675 25.558281 
" clip-path="url(#pb35e499a01)" style="fill: none; stroke: #d8d2c4; stroke-opacity: 0.7; stroke-width: 0.5; stroke-linecap: square"/>
     </g>
     <g id="line2d_4">
      <g>
       <use xlink:href="#m4ff706b13a" x="139.098675" y="232.946708" style="fill: #6e6a64; stroke: #6e6a64; stroke-width: 0.8"/>
      </g>
     </g>
     <g id="text_2">
      <!-- 50 -->
      <g style="fill: #6e6a64" transform="translate(134.008675 246.025458) scale(0.08 -0.08)">
       <defs>
        <path id="DejaVuSans-35" d="M 691 4666 
L 3169 4666 
L 3169 4134 
L 1269 4134 
L 1269 2991 
Q 1406 3038 1543 3061 
Q 1681 3084 1819 3084 
Q 2600 3084 3056 2656 
Q 3513 2228 3513 1497 
Q 3513 744 3044 326 
Q 2575 -91 1722 -91 
Q 1428 -91 1123 -41 
Q 819 9 494 109 
L 494 744 
Q 775 591 1075 516 
Q 1375 441 1709 441 
Q 2250 441 2565 725 
Q 2881 1009 2881 1497 
Q 2881 1984 2565 2268 
Q 2250 2553 1709 2553 
Q 1456 2553 1204 2497 
Q 953 2441 691 2322 
L 691 4666 
z
" transform="scale(0.015625)"/>
       </defs>
       <use xlink:href="#DejaVuSans-35"/>
       <use xlink:href="#DejaVuSans-30" transform="translate(63.623047 0)"/>
      </g>
     </g>
    </g>
    <g id="xtick_3">
     <g id="line2d_5">
      <path d="M 217.988515 232.946708 
L 217.988515 25.558281 
" clip-path="url(#pb35e499a01)" style="fill: none; stroke: #d8d2c4; stroke-opacity: 0.7; stroke-width: 0.5; stroke-linecap: square"/>
     </g>
     <g id="line2d_6">
      <g>
       <use xlink:href="#m4ff706b13a" x="217.988515" y="232.946708" style="fill: #6e6a64; stroke: #6e6a64; stroke-width: 0.8"/>
      </g>
     </g>
     <g id="text_3">
      <!-- 100 -->
      <g style="fill: #6e6a64" transform="translate(210.353515 246.025458) scale(0.08 -0.08)">
       <defs>
        <path id="DejaVuSans-31" d="M 794 531 
L 1825 531 
L 1825 4091 
L 703 3866 
L 703 4441 
L 1819 4666 
L 2450 4666 
L 2450 531 
L 3481 531 
L 3481 0 
L 794 0 
L 794 531 
z
" transform="scale(0.015625)"/>
       </defs>
       <use xlink:href="#DejaVuSans-31"/>
       <use xlink:href="#DejaVuSans-30" transform="translate(63.623047 0)"/>
       <use xlink:href="#DejaVuSans-30" transform="translate(127.246094 0)"/>
      </g>
     </g>
    </g>
    <g id="xtick_4">
     <g id="line2d_7">
      <path d="M 296.878356 232.946708 
L 296.878356 25.558281 
" clip-path="url(#pb35e499a01)" style="fill: none; stroke: #d8d2c4; stroke-opacity: 0.7; stroke-width: 0.5; stroke-linecap: square"/>
     </g>
     <g id="line2d_8">
      <g>
       <use xlink:href="#m4ff706b13a" x="296.878356" y="232.946708" style="fill: #6e6a64; stroke: #6e6a64; stroke-width: 0.8"/>
      </g>
     </g>
     <g id="text_4">
      <!-- 150 -->
      <g style="fill: #6e6a64" transform="translate(289.243356 246.025458) scale(0.08 -0.08)">
       <use xlink:href="#DejaVuSans-31"/>
       <use xlink:href="#DejaVuSans-35" transform="translate(63.623047 0)"/>
       <use xlink:href="#DejaVuSans-30" transform="translate(127.246094 0)"/>
      </g>
     </g>
    </g>
    <g id="xtick_5">
     <g id="line2d_9">
      <path d="M 375.768196 232.946708 
L 375.768196 25.558281 
" clip-path="url(#pb35e499a01)" style="fill: none; stroke: #d8d2c4; stroke-opacity: 0.7; stroke-width: 0.5; stroke-linecap: square"/>
     </g>
     <g id="line2d_10">
      <g>
       <use xlink:href="#m4ff706b13a" x="375.768196" y="232.946708" style="fill: #6e6a64; stroke: #6e6a64; stroke-width: 0.8"/>
      </g>
     </g>
     <g id="text_5">
      <!-- 200 -->
      <g style="fill: #6e6a64" transform="translate(368.133196 246.025458) scale(0.08 -0.08)">
       <defs>
        <path id="DejaVuSans-32" d="M 1228 531 
L 3431 531 
L 3431 0 
L 469 0 
L 469 531 
Q 828 903 1448 1529 
Q 2069 2156 2228 2338 
Q 2531 2678 2651 2914 
Q 2772 3150 2772 3378 
Q 2772 3750 2511 3984 
Q 2250 4219 1831 4219 
Q 1534 4219 1204 4116 
Q 875 4013 500 3803 
L 500 4441 
Q 881 4594 1212 4672 
Q 1544 4750 1819 4750 
Q 2544 4750 2975 4387 
Q 3406 4025 3406 3419 
Q 3406 3131 3298 2873 
Q 3191 2616 2906 2266 
Q 2828 2175 2409 1742 
Q 1991 1309 1228 531 
z
" transform="scale(0.015625)"/>
       </defs>
       <use xlink:href="#DejaVuSans-32"/>
       <use xlink:href="#DejaVuSans-30" transform="translate(63.623047 0)"/>
       <use xlink:href="#DejaVuSans-30" transform="translate(127.246094 0)"/>
      </g>
     </g>
    </g>
    <g id="xtick_6">
     <g id="line2d_11">
      <path d="M 454.658036 232.946708 
L 454.658036 25.558281 
" clip-path="url(#pb35e499a01)" style="fill: none; stroke: #d8d2c4; stroke-opacity: 0.7; stroke-width: 0.5; stroke-linecap: square"/>
     </g>
     <g id="line2d_12">
      <g>
       <use xlink:href="#m4ff706b13a" x="454.658036" y="232.946708" style="fill: #6e6a64; stroke: #6e6a64; stroke-width: 0.8"/>
      </g>
     </g>
     <g id="text_6">
      <!-- 250 -->
      <g style="fill: #6e6a64" transform="translate(447.023036 246.025458) scale(0.08 -0.08)">
       <use xlink:href="#DejaVuSans-32"/>
       <use xlink:href="#DejaVuSans-35" transform="translate(63.623047 0)"/>
       <use xlink:href="#DejaVuSans-30" transform="translate(127.246094 0)"/>
      </g>
     </g>
    </g>
    <g id="xtick_7">
     <g id="line2d_13">
      <path d="M 533.547877 232.946708 
L 533.547877 25.558281 
" clip-path="url(#pb35e499a01)" style="fill: none; stroke: #d8d2c4; stroke-opacity: 0.7; stroke-width: 0.5; stroke-linecap: square"/>
     </g>
     <g id="line2d_14">
      <g>
       <use xlink:href="#m4ff706b13a" x="533.547877" y="232.946708" style="fill: #6e6a64; stroke: #6e6a64; stroke-width: 0.8"/>
      </g>
     </g>
     <g id="text_7">
      <!-- 300 -->
      <g style="fill: #6e6a64" transform="translate(525.912877 246.025458) scale(0.08 -0.08)">
       <defs>
        <path id="DejaVuSans-33" d="M 2597 2516 
Q 3050 2419 3304 2112 
Q 3559 1806 3559 1356 
Q 3559 666 3084 287 
Q 2609 -91 1734 -91 
Q 1441 -91 1130 -33 
Q 819 25 488 141 
L 488 750 
Q 750 597 1062 519 
Q 1375 441 1716 441 
Q 2309 441 2620 675 
Q 2931 909 2931 1356 
Q 2931 1769 2642 2001 
Q 2353 2234 1838 2234 
L 1294 2234 
L 1294 2753 
L 1863 2753 
Q 2328 2753 2575 2939 
Q 2822 3125 2822 3475 
Q 2822 3834 2567 4026 
Q 2313 4219 1838 4219 
Q 1578 4219 1281 4162 
Q 984 4106 628 3988 
L 628 4550 
Q 988 4650 1302 4700 
Q 1616 4750 1894 4750 
Q 2613 4750 3031 4423 
Q 3450 4097 3450 3541 
Q 3450 3153 3228 2886 
Q 3006 2619 2597 2516 
z
" transform="scale(0.015625)"/>
       </defs>
       <use xlink:href="#DejaVuSans-33"/>
       <use xlink:href="#DejaVuSans-30" transform="translate(63.623047 0)"/>
       <use xlink:href="#DejaVuSans-30" transform="translate(127.246094 0)"/>
      </g>
     </g>
    </g>
    <g id="text_8">
     <!-- iteration -->
     <g style="fill: #6e6a64" transform="translate(269.978981 258.527801) scale(0.09 -0.09)">
      <defs>
       <path id="DejaVuSans-69" d="M 603 3500 
L 1178 3500 
L 1178 0 
L 603 0 
L 603 3500 
z
M 603 4863 
L 1178 4863 
L 1178 4134 
L 603 4134 
L 603 4863 
z
" transform="scale(0.015625)"/>
       <path id="DejaVuSans-74" d="M 1172 4494 
L 1172 3500 
L 2356 3500 
L 2356 3053 
L 1172 3053 
L 1172 1153 
Q 1172 725 1289 603 
Q 1406 481 1766 481 
L 2356 481 
L 2356 0 
L 1766 0 
Q 1100 0 847 248 
Q 594 497 594 1153 
L 594 3053 
L 172 3053 
L 172 3500 
L 594 3500 
L 594 4494 
L 1172 4494 
z
" transform="scale(0.015625)"/>
       <path id="DejaVuSans-65" d="M 3597 1894 
L 3597 1613 
L 953 1613 
Q 991 1019 1311 708 
Q 1631 397 2203 397 
Q 2534 397 2845 478 
Q 3156 559 3463 722 
L 3463 178 
Q 3153 47 2828 -22 
Q 2503 -91 2169 -91 
Q 1331 -91 842 396 
Q 353 884 353 1716 
Q 353 2575 817 3079 
Q 1281 3584 2069 3584 
Q 2775 3584 3186 3129 
Q 3597 2675 3597 1894 
z
M 3022 2063 
Q 3016 2534 2758 2815 
Q 2500 3097 2075 3097 
Q 1594 3097 1305 2825 
Q 1016 2553 972 2059 
L 3022 2063 
z
" transform="scale(0.015625)"/>
       <path id="DejaVuSans-72" d="M 2631 2963 
Q 2534 3019 2420 3045 
Q 2306 3072 2169 3072 
Q 1681 3072 1420 2755 
Q 1159 2438 1159 1844 
L 1159 0 
L 581 0 
L 581 3500 
L 1159 3500 
L 1159 2956 
Q 1341 3275 1631 3429 
Q 1922 3584 2338 3584 
Q 2397 3584 2469 3576 
Q 2541 3569 2628 3553 
L 2631 2963 
z
" transform="scale(0.015625)"/>
       <path id="DejaVuSans-61" d="M 2194 1759 
Q 1497 1759 1228 1600 
Q 959 1441 959 1056 
Q 959 750 1161 570 
Q 1363 391 1709 391 
Q 2188 391 2477 730 
Q 2766 1069 2766 1631 
L 2766 1759 
L 2194 1759 
z
M 3341 1997 
L 3341 0 
L 2766 0 
L 2766 531 
Q 2569 213 2275 61 
Q 1981 -91 1556 -91 
Q 1019 -91 701 211 
Q 384 513 384 1019 
Q 384 1609 779 1909 
Q 1175 2209 1959 2209 
L 2766 2209 
L 2766 2266 
Q 2766 2663 2505 2880 
Q 2244 3097 1772 3097 
Q 1472 3097 1187 3025 
Q 903 2953 641 2809 
L 641 3341 
Q 956 3463 1253 3523 
Q 1550 3584 1831 3584 
Q 2591 3584 2966 3190 
Q 3341 2797 3341 1997 
z
" transform="scale(0.015625)"/>
       <path id="DejaVuSans-6f" d="M 1959 3097 
Q 1497 3097 1228 2736 
Q 959 2375 959 1747 
Q 959 1119 1226 758 
Q 1494 397 1959 397 
Q 2419 397 2687 759 
Q 2956 1122 2956 1747 
Q 2956 2369 2687 2733 
Q 2419 3097 1959 3097 
z
M 1959 3584 
Q 2709 3584 3137 3096 
Q 3566 2609 3566 1747 
Q 3566 888 3137 398 
Q 2709 -91 1959 -91 
Q 1206 -91 779 398 
Q 353 888 353 1747 
Q 353 2609 779 3096 
Q 1206 3584 1959 3584 
z
" transform="scale(0.015625)"/>
       <path id="DejaVuSans-6e" d="M 3513 2113 
L 3513 0 
L 2938 0 
L 2938 2094 
Q 2938 2591 2744 2837 
Q 2550 3084 2163 3084 
Q 1697 3084 1428 2787 
Q 1159 2491 1159 1978 
L 1159 0 
L 581 0 
L 581 3500 
L 1159 3500 
L 1159 2956 
Q 1366 3272 1645 3428 
Q 1925 3584 2291 3584 
Q 2894 3584 3203 3211 
Q 3513 2838 3513 2113 
z
" transform="scale(0.015625)"/>
      </defs>
      <use xlink:href="#DejaVuSans-69"/>
      <use xlink:href="#DejaVuSans-74" transform="translate(27.783203 0)"/>
      <use xlink:href="#DejaVuSans-65" transform="translate(66.992188 0)"/>
      <use xlink:href="#DejaVuSans-72" transform="translate(128.515625 0)"/>
      <use xlink:href="#DejaVuSans-61" transform="translate(169.628906 0)"/>
      <use xlink:href="#DejaVuSans-74" transform="translate(230.908203 0)"/>
      <use xlink:href="#DejaVuSans-69" transform="translate(270.117188 0)"/>
      <use xlink:href="#DejaVuSans-6f" transform="translate(297.900391 0)"/>
      <use xlink:href="#DejaVuSans-6e" transform="translate(359.082031 0)"/>
     </g>
    </g>
   </g>
   <g id="matplotlib.axis_2">
    <g id="ytick_1">
     <g id="line2d_15">
      <path d="M 37.330781 226.99612 
L 540.647962 226.99612 
" clip-path="url(#pb35e499a01)" style="fill: none; stroke: #d8d2c4; stroke-opacity: 0.7; stroke-width: 0.5; stroke-linecap: square"/>
     </g>
     <g id="line2d_16">
      <defs>
       <path id="m78ddbe929d" d="M 0 0 
L -3.5 0 
" style="stroke: #6e6a64; stroke-width: 0.8"/>
      </defs>
      <g>
       <use xlink:href="#m78ddbe929d" x="37.330781" y="226.99612" style="fill: #6e6a64; stroke: #6e6a64; stroke-width: 0.8"/>
      </g>
     </g>
     <g id="text_9">
      <!-- 0 -->
      <g style="fill: #6e6a64" transform="translate(25.240781 230.035495) scale(0.08 -0.08)">
       <use xlink:href="#DejaVuSans-30"/>
      </g>
     </g>
    </g>
    <g id="ytick_2">
     <g id="line2d_17">
      <path d="M 37.330781 182.705028 
L 540.647962 182.705028 
" clip-path="url(#pb35e499a01)" style="fill: none; stroke: #d8d2c4; stroke-opacity: 0.7; stroke-width: 0.5; stroke-linecap: square"/>
     </g>
     <g id="line2d_18">
      <g>
       <use xlink:href="#m78ddbe929d" x="37.330781" y="182.705028" style="fill: #6e6a64; stroke: #6e6a64; stroke-width: 0.8"/>
      </g>
     </g>
     <g id="text_10">
      <!-- 20 -->
      <g style="fill: #6e6a64" transform="translate(20.150781 185.744403) scale(0.08 -0.08)">
       <use xlink:href="#DejaVuSans-32"/>
       <use xlink:href="#DejaVuSans-30" transform="translate(63.623047 0)"/>
      </g>
     </g>
    </g>
    <g id="ytick_3">
     <g id="line2d_19">
      <path d="M 37.330781 138.413936 
L 540.647962 138.413936 
" clip-path="url(#pb35e499a01)" style="fill: none; stroke: #d8d2c4; stroke-opacity: 0.7; stroke-width: 0.5; stroke-linecap: square"/>
     </g>
     <g id="line2d_20">
      <g>
       <use xlink:href="#m78ddbe929d" x="37.330781" y="138.413936" style="fill: #6e6a64; stroke: #6e6a64; stroke-width: 0.8"/>
      </g>
     </g>
     <g id="text_11">
      <!-- 40 -->
      <g style="fill: #6e6a64" transform="translate(20.150781 141.453311) scale(0.08 -0.08)">
       <defs>
        <path id="DejaVuSans-34" d="M 2419 4116 
L 825 1625 
L 2419 1625 
L 2419 4116 
z
M 2253 4666 
L 3047 4666 
L 3047 1625 
L 3713 1625 
L 3713 1100 
L 3047 1100 
L 3047 0 
L 2419 0 
L 2419 1100 
L 313 1100 
L 313 1709 
L 2253 4666 
z
" transform="scale(0.015625)"/>
       </defs>
       <use xlink:href="#DejaVuSans-34"/>
       <use xlink:href="#DejaVuSans-30" transform="translate(63.623047 0)"/>
      </g>
     </g>
    </g>
    <g id="ytick_4">
     <g id="line2d_21">
      <path d="M 37.330781 94.122845 
L 540.647962 94.122845 
" clip-path="url(#pb35e499a01)" style="fill: none; stroke: #d8d2c4; stroke-opacity: 0.7; stroke-width: 0.5; stroke-linecap: square"/>
     </g>
     <g id="line2d_22">
      <g>
       <use xlink:href="#m78ddbe929d" x="37.330781" y="94.122845" style="fill: #6e6a64; stroke: #6e6a64; stroke-width: 0.8"/>
      </g>
     </g>
     <g id="text_12">
      <!-- 60 -->
      <g style="fill: #6e6a64" transform="translate(20.150781 97.16222) scale(0.08 -0.08)">
       <defs>
        <path id="DejaVuSans-36" d="M 2113 2584 
Q 1688 2584 1439 2293 
Q 1191 2003 1191 1497 
Q 1191 994 1439 701 
Q 1688 409 2113 409 
Q 2538 409 2786 701 
Q 3034 994 3034 1497 
Q 3034 2003 2786 2293 
Q 2538 2584 2113 2584 
z
M 3366 4563 
L 3366 3988 
Q 3128 4100 2886 4159 
Q 2644 4219 2406 4219 
Q 1781 4219 1451 3797 
Q 1122 3375 1075 2522 
Q 1259 2794 1537 2939 
Q 1816 3084 2150 3084 
Q 2853 3084 3261 2657 
Q 3669 2231 3669 1497 
Q 3669 778 3244 343 
Q 2819 -91 2113 -91 
Q 1303 -91 875 529 
Q 447 1150 447 2328 
Q 447 3434 972 4092 
Q 1497 4750 2381 4750 
Q 2619 4750 2861 4703 
Q 3103 4656 3366 4563 
z
" transform="scale(0.015625)"/>
       </defs>
       <use xlink:href="#DejaVuSans-36"/>
       <use xlink:href="#DejaVuSans-30" transform="translate(63.623047 0)"/>
      </g>
     </g>
    </g>
    <g id="ytick_5">
     <g id="line2d_23">
      <path d="M 37.330781 49.831753 
L 540.647962 49.831753 
" clip-path="url(#pb35e499a01)" style="fill: none; stroke: #d8d2c4; stroke-opacity: 0.7; stroke-width: 0.5; stroke-linecap: square"/>
     </g>
     <g id="line2d_24">
      <g>
       <use xlink:href="#m78ddbe929d" x="37.330781" y="49.831753" style="fill: #6e6a64; stroke: #6e6a64; stroke-width: 0.8"/>
      </g>
     </g>
     <g id="text_13">
      <!-- 80 -->
      <g style="fill: #6e6a64" transform="translate(20.150781 52.871128) scale(0.08 -0.08)">
       <defs>
        <path id="DejaVuSans-38" d="M 2034 2216 
Q 1584 2216 1326 1975 
Q 1069 1734 1069 1313 
Q 1069 891 1326 650 
Q 1584 409 2034 409 
Q 2484 409 2743 651 
Q 3003 894 3003 1313 
Q 3003 1734 2745 1975 
Q 2488 2216 2034 2216 
z
M 1403 2484 
Q 997 2584 770 2862 
Q 544 3141 544 3541 
Q 544 4100 942 4425 
Q 1341 4750 2034 4750 
Q 2731 4750 3128 4425 
Q 3525 4100 3525 3541 
Q 3525 3141 3298 2862 
Q 3072 2584 2669 2484 
Q 3125 2378 3379 2068 
Q 3634 1759 3634 1313 
Q 3634 634 3220 271 
Q 2806 -91 2034 -91 
Q 1263 -91 848 271 
Q 434 634 434 1313 
Q 434 1759 690 2068 
Q 947 2378 1403 2484 
z
M 1172 3481 
Q 1172 3119 1398 2916 
Q 1625 2713 2034 2713 
Q 2441 2713 2670 2916 
Q 2900 3119 2900 3481 
Q 2900 3844 2670 4047 
Q 2441 4250 2034 4250 
Q 1625 4250 1398 4047 
Q 1172 3844 1172 3481 
z
" transform="scale(0.015625)"/>
       </defs>
       <use xlink:href="#DejaVuSans-38"/>
       <use xlink:href="#DejaVuSans-30" transform="translate(63.623047 0)"/>
      </g>
     </g>
    </g>
    <g id="text_14">
     <!-- energy ⟨H_C⟩ -->
     <g style="fill: #6e6a64" transform="translate(14.02875 158.651557) rotate(-90) scale(0.09 -0.09)">
      <defs>
       <path id="DejaVuSans-67" d="M 2906 1791 
Q 2906 2416 2648 2759 
Q 2391 3103 1925 3103 
Q 1463 3103 1205 2759 
Q 947 2416 947 1791 
Q 947 1169 1205 825 
Q 1463 481 1925 481 
Q 2391 481 2648 825 
Q 2906 1169 2906 1791 
z
M 3481 434 
Q 3481 -459 3084 -895 
Q 2688 -1331 1869 -1331 
Q 1566 -1331 1297 -1286 
Q 1028 -1241 775 -1147 
L 775 -588 
Q 1028 -725 1275 -790 
Q 1522 -856 1778 -856 
Q 2344 -856 2625 -561 
Q 2906 -266 2906 331 
L 2906 616 
Q 2728 306 2450 153 
Q 2172 0 1784 0 
Q 1141 0 747 490 
Q 353 981 353 1791 
Q 353 2603 747 3093 
Q 1141 3584 1784 3584 
Q 2172 3584 2450 3431 
Q 2728 3278 2906 2969 
L 2906 3500 
L 3481 3500 
L 3481 434 
z
" transform="scale(0.015625)"/>
       <path id="DejaVuSans-79" d="M 2059 -325 
Q 1816 -950 1584 -1140 
Q 1353 -1331 966 -1331 
L 506 -1331 
L 506 -850 
L 844 -850 
Q 1081 -850 1212 -737 
Q 1344 -625 1503 -206 
L 1606 56 
L 191 3500 
L 800 3500 
L 1894 763 
L 2988 3500 
L 3597 3500 
L 2059 -325 
z
" transform="scale(0.015625)"/>
       <path id="DejaVuSans-20" transform="scale(0.015625)"/>
       <path id="DejaVuSans-27e8" d="M 572 2006 
L 1453 4856 
L 1984 4856 
L 1103 2006 
L 1984 -844 
L 1453 -844 
L 572 2006 
z
" transform="scale(0.015625)"/>
       <path id="DejaVuSans-48" d="M 628 4666 
L 1259 4666 
L 1259 2753 
L 3553 2753 
L 3553 4666 
L 4184 4666 
L 4184 0 
L 3553 0 
L 3553 2222 
L 1259 2222 
L 1259 0 
L 628 0 
L 628 4666 
z
" transform="scale(0.015625)"/>
       <path id="DejaVuSans-5f" d="M 3263 -1063 
L 3263 -1509 
L -63 -1509 
L -63 -1063 
L 3263 -1063 
z
" transform="scale(0.015625)"/>
       <path id="DejaVuSans-43" d="M 4122 4306 
L 4122 3641 
Q 3803 3938 3442 4084 
Q 3081 4231 2675 4231 
Q 1875 4231 1450 3742 
Q 1025 3253 1025 2328 
Q 1025 1406 1450 917 
Q 1875 428 2675 428 
Q 3081 428 3442 575 
Q 3803 722 4122 1019 
L 4122 359 
Q 3791 134 3420 21 
Q 3050 -91 2638 -91 
Q 1578 -91 968 557 
Q 359 1206 359 2328 
Q 359 3453 968 4101 
Q 1578 4750 2638 4750 
Q 3056 4750 3426 4639 
Q 3797 4528 4122 4306 
z
" transform="scale(0.015625)"/>
       <path id="DejaVuSans-27e9" d="M 1925 2006 
L 1044 -844 
L 513 -844 
L 1394 2006 
L 513 4856 
L 1044 4856 
L 1925 2006 
z
" transform="scale(0.015625)"/>
      </defs>
      <use xlink:href="#DejaVuSans-65"/>
      <use xlink:href="#DejaVuSans-6e" transform="translate(61.523438 0)"/>
      <use xlink:href="#DejaVuSans-65" transform="translate(124.902344 0)"/>
      <use xlink:href="#DejaVuSans-72" transform="translate(186.425781 0)"/>
      <use xlink:href="#DejaVuSans-67" transform="translate(225.789062 0)"/>
      <use xlink:href="#DejaVuSans-79" transform="translate(289.265625 0)"/>
      <use xlink:href="#DejaVuSans-20" transform="translate(348.445312 0)"/>
      <use xlink:href="#DejaVuSans-27e8" transform="translate(380.232422 0)"/>
      <use xlink:href="#DejaVuSans-48" transform="translate(419.246094 0)"/>
      <use xlink:href="#DejaVuSans-5f" transform="translate(494.441406 0)"/>
      <use xlink:href="#DejaVuSans-43" transform="translate(544.441406 0)"/>
      <use xlink:href="#DejaVuSans-27e9" transform="translate(614.265625 0)"/>
     </g>
    </g>
   </g>
   <g id="line2d_25">
    <path d="M 60.208835 185.961532 
L 61.786632 182.648063 
L 63.364429 191.150855 
L 64.942225 148.088786 
L 66.520022 143.338091 
L 68.097819 174.453865 
L 69.675616 204.388896 
L 71.253413 214.558443 
L 72.831209 200.04981 
L 74.409006 169.064201 
L 75.986803 178.405028 
L 77.5646 203.313561 
L 79.142397 207.006901 
L 80.720193 214.727305 
L 82.29799 204.739106 
L 83.875787 212.039101 
L 85.453584 214.452029 
L 87.031381 214.238196 
L 88.609177 215.366765 
L 90.186974 216.171628 
L 91.764771 216.497152 
L 93.342568 216.508821 
L 94.920365 215.886735 
L 96.498161 216.457933 
L 98.075958 216.957073 
L 99.653755 217.303942 
L 101.231552 217.415091 
L 102.809349 218.109764 
L 104.387145 218.284496 
L 105.964942 218.182272 
L 107.542739 218.450601 
L 109.120536 218.588043 
L 110.698333 218.519924 
L 112.27613 218.594298 
L 113.853926 218.39353 
L 115.431723 218.668157 
L 117.00952 218.623667 
L 118.587317 218.650455 
L 120.165114 218.709949 
L 121.74291 218.735962 
L 123.320707 218.758783 
L 124.898504 218.77326 
L 126.476301 218.794704 
L 128.054098 218.779793 
L 129.631894 218.807275 
L 131.209691 218.846134 
L 132.787488 218.8851 
L 134.365285 218.95786 
L 135.943082 219.097343 
L 137.520878 219.338643 
L 139.098675 219.668806 
L 140.676472 218.894701 
L 142.254269 219.616339 
L 143.832066 219.620016 
L 145.409862 219.636384 
L 146.987659 219.678246 
L 148.565456 219.709278 
L 150.143253 219.728082 
L 151.72105 219.71579 
L 153.298846 219.715881 
L 154.876643 219.754276 
L 156.45444 219.789694 
L 158.032237 219.780733 
L 159.610034 219.795759 
L 161.18783 219.811684 
L 162.765627 219.819301 
L 164.343424 219.82774 
L 165.921221 219.831075 
L 167.499018 219.816483 
L 169.076814 219.837824 
L 170.654611 219.85579 
L 172.232408 219.859026 
L 173.810205 219.877726 
L 175.388002 219.892009 
L 176.965799 219.907597 
L 178.543595 219.935958 
L 180.121392 219.940863 
L 181.699189 219.963625 
L 183.276986 219.98883 
L 184.854783 220.009859 
L 186.432579 220.036466 
L 188.010376 220.080776 
L 189.588173 220.096129 
L 191.16597 220.077934 
L 192.743767 220.090564 
L 194.321563 220.094516 
L 195.89936 220.095166 
L 197.477157 220.093173 
L 199.054954 220.099397 
L 200.632751 220.09701 
L 202.210547 220.088648 
L 203.788344 220.112159 
L 205.366141 220.113529 
L 206.943938 220.11981 
L 208.521735 220.133453 
L 210.099531 220.148396 
L 211.677328 220.168142 
L 213.255125 220.180833 
L 214.832922 220.187949 
L 216.410719 220.201907 
L 217.988515 220.217911 
L 219.566312 220.227515 
L 221.144109 220.222418 
L 222.721906 220.228439 
L 224.299703 220.226498 
L 225.877499 220.22487 
L 227.455296 220.228498 
L 229.033093 220.213578 
L 230.61089 220.23276 
L 232.188687 220.236416 
L 233.766484 220.232956 
L 235.34428 220.235578 
L 236.922077 220.226206 
L 238.499874 220.240474 
L 240.077671 220.242889 
L 241.655468 220.245287 
L 243.233264 220.246877 
L 244.811061 220.250389 
L 246.388858 220.252316 
L 247.966655 220.254943 
" clip-path="url(#pb35e499a01)" style="fill: none; stroke: #c0392b; stroke-width: 1.6; stroke-linecap: square"/>
   </g>
   <g id="line2d_26">
    <path d="M 60.208835 38.553805 
L 61.786632 37.956456 
L 63.364429 118.964773 
L 64.942225 117.965182 
L 66.520022 56.144703 
L 68.097819 109.362128 
L 69.675616 111.599883 
L 71.253413 160.535297 
L 72.831209 38.553805 
L 74.409006 37.956456 
L 75.986803 56.144703 
L 77.5646 109.362128 
L 79.142397 56.359819 
L 80.720193 109.774435 
L 82.29799 34.985028 
L 83.875787 81.810854 
L 85.453584 160.535297 
L 87.031381 111.599883 
L 88.609177 86.624914 
L 90.186974 51.369505 
L 91.764771 56.359819 
L 93.342568 109.774435 
L 94.920365 56.359819 
L 96.498161 109.774435 
L 98.075958 116.381473 
L 99.653755 106.540469 
L 101.231552 86.624914 
L 102.809349 51.369505 
L 104.387145 56.359819 
L 105.964942 109.774435 
L 107.542739 116.381473 
L 109.120536 106.540469 
L 110.698333 56.144703 
L 112.27613 109.362128 
L 113.853926 117.965182 
L 115.431723 118.964773 
L 117.00952 118.964773 
L 118.587317 117.965182 
L 120.165114 56.144703 
L 121.74291 109.362128 
L 123.320707 81.810854 
L 124.898504 34.985028 
L 126.476301 56.359819 
L 128.054098 109.774435 
L 129.631894 118.964773 
L 131.209691 117.965182 
L 132.787488 117.965182 
L 134.365285 118.964773 
L 135.943082 109.362128 
L 137.520878 56.144703 
L 139.098675 51.369505 
L 140.676472 86.624914 
L 142.254269 107.24612 
L 143.832066 82.893406 
L 145.409862 120.980435 
L 146.987659 115.368112 
L 148.565456 178.735543 
L 150.143253 134.35305 
L 151.72105 157.14436 
L 153.298846 186.742873 
L 154.876643 193.585717 
L 156.45444 102.447885 
L 158.032237 180.61141 
L 159.610034 131.90121 
L 161.18783 149.102564 
L 162.765627 85.101719 
L 164.343424 146.655567 
L 165.921221 56.356063 
L 167.499018 137.514979 
L 169.076814 113.125574 
L 170.654611 109.227653 
L 172.232408 123.968929 
L 173.810205 89.650457 
L 175.388002 135.765328 
L 176.965799 168.892558 
L 178.543595 134.705362 
L 180.121392 170.746064 
L 181.699189 139.496735 
L 183.276986 119.282119 
L 184.854783 146.302914 
L 186.432579 147.644861 
L 188.010376 120.35773 
L 189.588173 96.773999 
L 191.16597 185.152958 
L 192.743767 85.147378 
L 194.321563 101.756384 
L 195.89936 122.993874 
L 197.477157 110.608431 
L 199.054954 92.853029 
L 200.632751 166.404034 
L 202.210547 187.74401 
L 203.788344 144.981832 
L 205.366141 148.485904 
L 206.943938 196.614903 
L 208.521735 154.38723 
L 210.099531 192.982677 
L 211.677328 131.875277 
L 213.255125 202.463719 
L 216.410719 164.555898 
L 217.988515 171.766974 
L 219.566312 190.753016 
L 221.144109 185.919733 
L 222.721906 123.929069 
L 224.299703 86.414794 
L 225.877499 192.260983 
L 227.455296 47.42994 
L 229.033093 137.76739 
L 230.61089 52.55921 
L 232.188687 125.551228 
L 233.766484 122.143872 
L 235.34428 144.358505 
L 236.922077 168.58507 
L 238.499874 165.822674 
L 240.077671 158.088872 
L 241.655468 153.995136 
L 243.233264 145.402452 
L 244.811061 184.427069 
L 246.388858 109.559209 
L 247.966655 101.419359 
L 249.544452 140.805925 
L 251.122248 140.391234 
L 252.700045 118.11282 
L 254.277842 127.710629 
L 255.855639 98.087382 
L 257.433436 106.928858 
L 259.011232 70.374037 
L 260.589029 106.462024 
L 262.166826 89.078337 
L 263.744623 89.47333 
L 265.32242 89.207385 
L 266.900216 87.56191 
L 268.478013 88.040823 
L 270.05581 84.861154 
L 271.633607 68.298872 
L 273.211404 183.627815 
L 274.7892 107.583727 
L 276.366997 127.18432 
L 277.944794 155.444652 
L 279.522591 99.993808 
L 281.100388 165.447847 
L 282.678184 96.53929 
L 284.255981 163.07467 
L 285.833778 109.611884 
L 287.411575 173.172087 
L 288.989372 95.765408 
L 290.567169 135.67433 
L 292.144965 185.130776 
L 293.722762 165.718764 
L 295.300559 185.966999 
L 296.878356 176.166501 
L 298.456153 190.684641 
L 300.033949 176.289399 
L 301.611746 173.289542 
L 303.189543 185.326453 
L 304.76734 181.285308 
L 306.345137 186.182447 
L 307.922933 187.006479 
L 309.50073 161.802679 
L 311.078527 182.693712 
L 312.656324 185.401208 
L 314.234121 174.28115 
L 315.811917 175.471903 
L 317.389714 165.435695 
L 318.967511 178.919026 
L 320.545308 193.516459 
L 322.123105 186.961658 
L 323.700901 169.062597 
L 325.278698 183.639934 
L 326.856495 144.619543 
L 328.434292 177.43823 
L 330.012089 177.549839 
L 333.167682 177.52615 
L 336.323276 177.591838 
L 337.901073 146.920554 
L 339.478869 182.186009 
L 341.056666 183.112052 
L 342.634463 185.064423 
L 344.21226 187.852592 
L 345.790057 157.776125 
L 347.367853 160.817457 
L 348.94565 187.674511 
L 350.523447 179.363786 
L 352.101244 183.328094 
L 353.679041 177.853069 
L 355.256838 162.10288 
L 356.834634 177.759789 
L 358.412431 185.549809 
L 359.990228 152.516201 
L 361.568025 167.62603 
L 363.145822 160.402696 
L 364.723618 171.947499 
L 366.301415 156.126154 
L 367.879212 176.532157 
L 369.457009 183.107239 
L 371.034806 192.822812 
L 372.612602 186.670435 
L 374.190399 192.373696 
L 375.768196 187.742752 
L 377.345993 190.549144 
L 378.92379 173.719718 
L 380.501586 179.943613 
L 382.079383 181.000155 
L 383.65718 173.751588 
L 385.234977 181.482626 
L 386.812774 186.573442 
L 388.39057 173.184011 
L 389.968367 185.333408 
L 391.546164 187.995252 
L 393.123961 173.69501 
L 394.701758 178.902247 
L 396.279554 161.574789 
L 397.857351 173.219781 
L 399.435148 181.900766 
L 401.012945 171.097532 
L 402.590742 148.162466 
L 404.168538 176.939213 
L 405.746335 178.750983 
L 408.901929 192.309229 
L 410.479726 191.727452 
L 412.057523 190.256837 
L 413.635319 165.508242 
L 415.213116 170.265821 
L 416.790913 187.012908 
L 418.36871 193.499331 
L 419.946507 181.187459 
L 421.524303 178.991915 
L 423.1021 169.430949 
L 424.679897 169.371423 
L 426.257694 168.916874 
L 427.835491 170.540183 
L 429.413287 175.968724 
L 430.991084 171.607994 
L 432.568881 195.798732 
L 434.146678 190.934849 
L 435.724475 184.392724 
L 437.302271 175.820534 
L 438.880068 177.487735 
L 440.457865 167.427161 
L 442.035662 179.488598 
L 443.613459 174.036063 
L 445.191255 174.204693 
L 446.769052 165.791018 
L 448.346849 168.15667 
L 449.924646 172.407576 
L 451.502443 182.856518 
L 453.080239 173.825538 
L 454.658036 177.375927 
L 456.235833 167.860313 
L 457.81363 177.823379 
L 459.391427 177.296062 
L 460.969223 186.195314 
L 462.54702 169.275499 
L 464.124817 175.50932 
L 465.702614 165.14995 
L 467.280411 158.671672 
L 468.858208 174.482378 
L 470.436004 173.235365 
L 472.013801 162.564071 
L 473.591598 182.189921 
L 475.169395 167.970123 
L 476.747192 171.549033 
L 478.324988 174.337791 
L 479.902785 175.173029 
L 481.480582 157.291046 
L 483.058379 182.071338 
L 484.636176 174.715035 
L 486.213972 174.477516 
L 487.791769 173.798924 
L 489.369566 173.393573 
L 490.947363 183.164805 
L 492.52516 186.409088 
L 494.102956 185.201277 
L 495.680753 182.295364 
L 497.25855 189.305571 
L 498.836347 176.047647 
L 500.414144 177.53264 
L 501.99194 173.367109 
L 503.569737 172.800551 
L 505.147534 172.725566 
L 506.725331 169.6317 
L 508.303128 172.575625 
L 509.880924 184.880641 
L 511.458721 179.011265 
L 513.036518 184.066159 
L 514.614315 182.210393 
L 516.192112 181.550396 
L 517.769908 187.980978 
L 517.769908 187.980978 
" clip-path="url(#pb35e499a01)" style="fill: none; stroke-dasharray: 4.8,4.8; stroke-dashoffset: 0; stroke: #0e7490; stroke-width: 1.6"/>
   </g>
   <g id="line2d_27">
    <path d="M 60.208835 185.961532 
L 66.520022 185.96153 
L 68.097819 119.667558 
L 74.409006 119.66756 
L 75.986803 209.202357 
L 82.29799 209.202357 
L 83.875787 210.553238 
L 90.186974 210.553238 
L 91.764771 212.810264 
L 98.075958 212.810264 
L 99.653755 214.558506 
L 105.964942 214.558506 
L 107.542739 218.000055 
L 113.853926 218.000055 
L 115.431723 221.892431 
L 121.74291 221.892431 
L 123.320707 222.389164 
L 129.631894 222.389164 
L 131.209691 222.672824 
L 145.409862 222.770349 
L 146.987659 223.042241 
L 153.298846 223.042241 
L 154.876643 223.1629 
L 169.076814 223.262047 
L 172.232408 223.353305 
L 192.743767 223.442463 
L 194.321563 223.009448 
L 200.632751 223.009448 
L 202.210547 223.482713 
L 208.521735 223.482713 
L 210.099531 223.059991 
L 216.410719 223.059991 
L 217.988515 223.503064 
L 287.411575 223.519961 
L 287.411575 223.519961 
" clip-path="url(#pb35e499a01)" style="fill: none; stroke: #c4880a; stroke-width: 2; stroke-linecap: square"/>
   </g>
   <g id="line2d_28">
    <path d="M 37.330781 227.818523 
L 540.647962 227.818523 
" clip-path="url(#pb35e499a01)" style="fill: none; stroke-dasharray: 3.7,1.6; stroke-dashoffset: 0; stroke: #4a8c3f; stroke-opacity: 0.8"/>
   </g>
   <g id="patch_3">
    <path d="M 37.330781 232.946708 
L 37.330781 25.558281 
" style="fill: none; stroke: #d8d2c4; stroke-width: 0.8; stroke-linejoin: miter; stroke-linecap: square"/>
   </g>
   <g id="patch_4">
    <path d="M 540.647962 232.946708 
L 540.647962 25.558281 
" style="fill: none; stroke: #d8d2c4; stroke-width: 0.8; stroke-linejoin: miter; stroke-linecap: square"/>
   </g>
   <g id="patch_5">
    <path d="M 37.330781 232.946708 
L 540.647962 232.946708 
" style="fill: none; stroke: #d8d2c4; stroke-width: 0.8; stroke-linejoin: miter; stroke-linecap: square"/>
   </g>
   <g id="patch_6">
    <path d="M 37.330781 25.558281 
L 540.647962 25.558281 
" style="fill: none; stroke: #d8d2c4; stroke-width: 0.8; stroke-linejoin: miter; stroke-linecap: square"/>
   </g>
   <g id="text_15">
    <!-- ⟨H_C⟩ vs iteration · N=10, K=4, p=2 · lower is better -->
    <g style="fill: #1a1a2e" transform="translate(144.843825 15.558281) scale(0.11 -0.11)">
     <defs>
      <path id="DejaVuSans-76" d="M 191 3500 
L 800 3500 
L 1894 563 
L 2988 3500 
L 3597 3500 
L 2284 0 
L 1503 0 
L 191 3500 
z
" transform="scale(0.015625)"/>
      <path id="DejaVuSans-73" d="M 2834 3397 
L 2834 2853 
Q 2591 2978 2328 3040 
Q 2066 3103 1784 3103 
Q 1356 3103 1142 2972 
Q 928 2841 928 2578 
Q 928 2378 1081 2264 
Q 1234 2150 1697 2047 
L 1894 2003 
Q 2506 1872 2764 1633 
Q 3022 1394 3022 966 
Q 3022 478 2636 193 
Q 2250 -91 1575 -91 
Q 1294 -91 989 -36 
Q 684 19 347 128 
L 347 722 
Q 666 556 975 473 
Q 1284 391 1588 391 
Q 1994 391 2212 530 
Q 2431 669 2431 922 
Q 2431 1156 2273 1281 
Q 2116 1406 1581 1522 
L 1381 1569 
Q 847 1681 609 1914 
Q 372 2147 372 2553 
Q 372 3047 722 3315 
Q 1072 3584 1716 3584 
Q 2034 3584 2315 3537 
Q 2597 3491 2834 3397 
z
" transform="scale(0.015625)"/>
      <path id="DejaVuSans-b7" d="M 684 2619 
L 1344 2619 
L 1344 1825 
L 684 1825 
L 684 2619 
z
" transform="scale(0.015625)"/>
      <path id="DejaVuSans-4e" d="M 628 4666 
L 1478 4666 
L 3547 763 
L 3547 4666 
L 4159 4666 
L 4159 0 
L 3309 0 
L 1241 3903 
L 1241 0 
L 628 0 
L 628 4666 
z
" transform="scale(0.015625)"/>
      <path id="DejaVuSans-3d" d="M 678 2906 
L 4684 2906 
L 4684 2381 
L 678 2381 
L 678 2906 
z
M 678 1631 
L 4684 1631 
L 4684 1100 
L 678 1100 
L 678 1631 
z
" transform="scale(0.015625)"/>
      <path id="DejaVuSans-2c" d="M 750 794 
L 1409 794 
L 1409 256 
L 897 -744 
L 494 -744 
L 750 256 
L 750 794 
z
" transform="scale(0.015625)"/>
      <path id="DejaVuSans-4b" d="M 628 4666 
L 1259 4666 
L 1259 2694 
L 3353 4666 
L 4166 4666 
L 1850 2491 
L 4331 0 
L 3500 0 
L 1259 2247 
L 1259 0 
L 628 0 
L 628 4666 
z
" transform="scale(0.015625)"/>
      <path id="DejaVuSans-70" d="M 1159 525 
L 1159 -1331 
L 581 -1331 
L 581 3500 
L 1159 3500 
L 1159 2969 
Q 1341 3281 1617 3432 
Q 1894 3584 2278 3584 
Q 2916 3584 3314 3078 
Q 3713 2572 3713 1747 
Q 3713 922 3314 415 
Q 2916 -91 2278 -91 
Q 1894 -91 1617 61 
Q 1341 213 1159 525 
z
M 3116 1747 
Q 3116 2381 2855 2742 
Q 2594 3103 2138 3103 
Q 1681 3103 1420 2742 
Q 1159 2381 1159 1747 
Q 1159 1113 1420 752 
Q 1681 391 2138 391 
Q 2594 391 2855 752 
Q 3116 1113 3116 1747 
z
" transform="scale(0.015625)"/>
      <path id="DejaVuSans-6c" d="M 603 4863 
L 1178 4863 
L 1178 0 
L 603 0 
L 603 4863 
z
" transform="scale(0.015625)"/>
      <path id="DejaVuSans-77" d="M 269 3500 
L 844 3500 
L 1563 769 
L 2278 3500 
L 2956 3500 
L 3675 769 
L 4391 3500 
L 4966 3500 
L 4050 0 
L 3372 0 
L 2619 2869 
L 1863 0 
L 1184 0 
L 269 3500 
z
" transform="scale(0.015625)"/>
      <path id="DejaVuSans-62" d="M 3116 1747 
Q 3116 2381 2855 2742 
Q 2594 3103 2138 3103 
Q 1681 3103 1420 2742 
Q 1159 2381 1159 1747 
Q 1159 1113 1420 752 
Q 1681 391 2138 391 
Q 2594 391 2855 752 
Q 3116 1113 3116 1747 
z
M 1159 2969 
Q 1341 3281 1617 3432 
Q 1894 3584 2278 3584 
Q 2916 3584 3314 3078 
Q 3713 2572 3713 1747 
Q 3713 922 3314 415 
Q 2916 -91 2278 -91 
Q 1894 -91 1617 61 
Q 1341 213 1159 525 
L 1159 0 
L 581 0 
L 581 4863 
L 1159 4863 
L 1159 2969 
z
" transform="scale(0.015625)"/>
     </defs>
     <use xlink:href="#DejaVuSans-27e8"/>
     <use xlink:href="#DejaVuSans-48" transform="translate(39.013672 0)"/>
     <use xlink:href="#DejaVuSans-5f" transform="translate(114.208984 0)"/>
     <use xlink:href="#DejaVuSans-43" transform="translate(164.208984 0)"/>
     <use xlink:href="#DejaVuSans-27e9" transform="translate(234.033203 0)"/>
     <use xlink:href="#DejaVuSans-20" transform="translate(273.046875 0)"/>
     <use xlink:href="#DejaVuSans-76" transform="translate(304.833984 0)"/>
     <use xlink:href="#DejaVuSans-73" transform="translate(364.013672 0)"/>
     <use xlink:href="#DejaVuSans-20" transform="translate(416.113281 0)"/>
     <use xlink:href="#DejaVuSans-69" transform="translate(447.900391 0)"/>
     <use xlink:href="#DejaVuSans-74" transform="translate(475.683594 0)"/>
     <use xlink:href="#DejaVuSans-65" transform="translate(514.892578 0)"/>
     <use xlink:href="#DejaVuSans-72" transform="translate(576.416016 0)"/>
     <use xlink:href="#DejaVuSans-61" transform="translate(617.529297 0)"/>
     <use xlink:href="#DejaVuSans-74" transform="translate(678.808594 0)"/>
     <use xlink:href="#DejaVuSans-69" transform="translate(718.017578 0)"/>
     <use xlink:href="#DejaVuSans-6f" transform="translate(745.800781 0)"/>
     <use xlink:href="#DejaVuSans-6e" transform="translate(806.982422 0)"/>
     <use xlink:href="#DejaVuSans-20" transform="translate(870.361328 0)"/>
     <use xlink:href="#DejaVuSans-b7" transform="translate(902.148438 0)"/>
     <use xlink:href="#DejaVuSans-20" transform="translate(933.935547 0)"/>
     <use xlink:href="#DejaVuSans-4e" transform="translate(965.722656 0)"/>
     <use xlink:href="#DejaVuSans-3d" transform="translate(1040.527344 0)"/>
     <use xlink:href="#DejaVuSans-31" transform="translate(1124.316406 0)"/>
     <use xlink:href="#DejaVuSans-30" transform="translate(1187.939453 0)"/>
     <use xlink:href="#DejaVuSans-2c" transform="translate(1251.5625 0)"/>
     <use xlink:href="#DejaVuSans-20" transform="translate(1283.349609 0)"/>
     <use xlink:href="#DejaVuSans-4b" transform="translate(1315.136719 0)"/>
     <use xlink:href="#DejaVuSans-3d" transform="translate(1380.712891 0)"/>
     <use xlink:href="#DejaVuSans-34" transform="translate(1464.501953 0)"/>
     <use xlink:href="#DejaVuSans-2c" transform="translate(1528.125 0)"/>
     <use xlink:href="#DejaVuSans-20" transform="translate(1559.912109 0)"/>
     <use xlink:href="#DejaVuSans-70" transform="translate(1591.699219 0)"/>
     <use xlink:href="#DejaVuSans-3d" transform="translate(1655.175781 0)"/>
     <use xlink:href="#DejaVuSans-32" transform="translate(1738.964844 0)"/>
     <use xlink:href="#DejaVuSans-20" transform="translate(1802.587891 0)"/>
     <use xlink:href="#DejaVuSans-b7" transform="translate(1834.375 0)"/>
     <use xlink:href="#DejaVuSans-20" transform="translate(1866.162109 0)"/>
     <use xlink:href="#DejaVuSans-6c" transform="translate(1897.949219 0)"/>
     <use xlink:href="#DejaVuSans-6f" transform="translate(1925.732422 0)"/>
     <use xlink:href="#DejaVuSans-77" transform="translate(1986.914062 0)"/>
     <use xlink:href="#DejaVuSans-65" transform="translate(2068.701172 0)"/>
     <use xlink:href="#DejaVuSans-72" transform="translate(2130.224609 0)"/>
     <use xlink:href="#DejaVuSans-20" transform="translate(2171.337891 0)"/>
     <use xlink:href="#DejaVuSans-69" transform="translate(2203.125 0)"/>
     <use xlink:href="#DejaVuSans-73" transform="translate(2230.908203 0)"/>
     <use xlink:href="#DejaVuSans-20" transform="translate(2283.007812 0)"/>
     <use xlink:href="#DejaVuSans-62" transform="translate(2314.794922 0)"/>
     <use xlink:href="#DejaVuSans-65" transform="translate(2378.271484 0)"/>
     <use xlink:href="#DejaVuSans-74" transform="translate(2439.794922 0)"/>
     <use xlink:href="#DejaVuSans-74" transform="translate(2479.003906 0)"/>
     <use xlink:href="#DejaVuSans-65" transform="translate(2518.212891 0)"/>
     <use xlink:href="#DejaVuSans-72" transform="translate(2579.736328 0)"/>
    </g>
   </g>
   <g id="legend_1">
    <g id="patch_7">
     <path d="M 406.754212 78.928281 
L 535.047962 78.928281 
Q 536.647962 78.928281 536.647962 77.328281 
L 536.647962 31.158281 
Q 536.647962 29.558281 535.047962 29.558281 
L 406.754212 29.558281 
Q 405.154212 29.558281 405.154212 31.158281 
L 405.154212 77.328281 
Q 405.154212 78.928281 406.754212 78.928281 
z
" style="fill: #ffffff; opacity: 0.9; stroke: #d8d2c4; stroke-linejoin: miter"/>
    </g>
    <g id="line2d_29">
     <path d="M 408.354212 36.037031 
L 416.354212 36.037031 
L 424.354212 36.037031 
" style="fill: none; stroke: #c0392b; stroke-width: 1.6; stroke-linecap: square"/>
    </g>
    <g id="text_16">
     <!-- COBYLA -->
     <g transform="translate(430.754212 38.837031) scale(0.08 -0.08)">
      <defs>
       <path id="DejaVuSans-4f" d="M 2522 4238 
Q 1834 4238 1429 3725 
Q 1025 3213 1025 2328 
Q 1025 1447 1429 934 
Q 1834 422 2522 422 
Q 3209 422 3611 934 
Q 4013 1447 4013 2328 
Q 4013 3213 3611 3725 
Q 3209 4238 2522 4238 
z
M 2522 4750 
Q 3503 4750 4090 4092 
Q 4678 3434 4678 2328 
Q 4678 1225 4090 567 
Q 3503 -91 2522 -91 
Q 1538 -91 948 565 
Q 359 1222 359 2328 
Q 359 3434 948 4092 
Q 1538 4750 2522 4750 
z
" transform="scale(0.015625)"/>
       <path id="DejaVuSans-42" d="M 1259 2228 
L 1259 519 
L 2272 519 
Q 2781 519 3026 730 
Q 3272 941 3272 1375 
Q 3272 1813 3026 2020 
Q 2781 2228 2272 2228 
L 1259 2228 
z
M 1259 4147 
L 1259 2741 
L 2194 2741 
Q 2656 2741 2882 2914 
Q 3109 3088 3109 3444 
Q 3109 3797 2882 3972 
Q 2656 4147 2194 4147 
L 1259 4147 
z
M 628 4666 
L 2241 4666 
Q 2963 4666 3353 4366 
Q 3744 4066 3744 3513 
Q 3744 3084 3544 2831 
Q 3344 2578 2956 2516 
Q 3422 2416 3680 2098 
Q 3938 1781 3938 1306 
Q 3938 681 3513 340 
Q 3088 0 2303 0 
L 628 0 
L 628 4666 
z
" transform="scale(0.015625)"/>
       <path id="DejaVuSans-59" d="M -13 4666 
L 666 4666 
L 1959 2747 
L 3244 4666 
L 3922 4666 
L 2272 2222 
L 2272 0 
L 1638 0 
L 1638 2222 
L -13 4666 
z
" transform="scale(0.015625)"/>
       <path id="DejaVuSans-4c" d="M 628 4666 
L 1259 4666 
L 1259 531 
L 3531 531 
L 3531 0 
L 628 0 
L 628 4666 
z
" transform="scale(0.015625)"/>
       <path id="DejaVuSans-41" d="M 2188 4044 
L 1331 1722 
L 3047 1722 
L 2188 4044 
z
M 1831 4666 
L 2547 4666 
L 4325 0 
L 3669 0 
L 3244 1197 
L 1141 1197 
L 716 0 
L 50 0 
L 1831 4666 
z
" transform="scale(0.015625)"/>
      </defs>
      <use xlink:href="#DejaVuSans-43"/>
      <use xlink:href="#DejaVuSans-4f" transform="translate(69.824219 0)"/>
      <use xlink:href="#DejaVuSans-42" transform="translate(148.535156 0)"/>
      <use xlink:href="#DejaVuSans-59" transform="translate(211.638672 0)"/>
      <use xlink:href="#DejaVuSans-4c" transform="translate(272.722656 0)"/>
      <use xlink:href="#DejaVuSans-41" transform="translate(330.685547 0)"/>
     </g>
    </g>
    <g id="line2d_30">
     <path d="M 408.354212 47.779531 
L 416.354212 47.779531 
L 424.354212 47.779531 
" style="fill: none; stroke-dasharray: 4.8,4.8; stroke-dashoffset: 0; stroke: #0e7490; stroke-width: 1.6"/>
    </g>
    <g id="text_17">
     <!-- SPSA -->
     <g transform="translate(430.754212 50.579531) scale(0.08 -0.08)">
      <defs>
       <path id="DejaVuSans-53" d="M 3425 4513 
L 3425 3897 
Q 3066 4069 2747 4153 
Q 2428 4238 2131 4238 
Q 1616 4238 1336 4038 
Q 1056 3838 1056 3469 
Q 1056 3159 1242 3001 
Q 1428 2844 1947 2747 
L 2328 2669 
Q 3034 2534 3370 2195 
Q 3706 1856 3706 1288 
Q 3706 609 3251 259 
Q 2797 -91 1919 -91 
Q 1588 -91 1214 -16 
Q 841 59 441 206 
L 441 856 
Q 825 641 1194 531 
Q 1563 422 1919 422 
Q 2459 422 2753 634 
Q 3047 847 3047 1241 
Q 3047 1584 2836 1778 
Q 2625 1972 2144 2069 
L 1759 2144 
Q 1053 2284 737 2584 
Q 422 2884 422 3419 
Q 422 4038 858 4394 
Q 1294 4750 2059 4750 
Q 2388 4750 2728 4690 
Q 3069 4631 3425 4513 
z
" transform="scale(0.015625)"/>
       <path id="DejaVuSans-50" d="M 1259 4147 
L 1259 2394 
L 2053 2394 
Q 2494 2394 2734 2622 
Q 2975 2850 2975 3272 
Q 2975 3691 2734 3919 
Q 2494 4147 2053 4147 
L 1259 4147 
z
M 628 4666 
L 2053 4666 
Q 2838 4666 3239 4311 
Q 3641 3956 3641 3272 
Q 3641 2581 3239 2228 
Q 2838 1875 2053 1875 
L 1259 1875 
L 1259 0 
L 628 0 
L 628 4666 
z
" transform="scale(0.015625)"/>
      </defs>
      <use xlink:href="#DejaVuSans-53"/>
      <use xlink:href="#DejaVuSans-50" transform="translate(63.476562 0)"/>
      <use xlink:href="#DejaVuSans-53" transform="translate(123.779297 0)"/>
      <use xlink:href="#DejaVuSans-41" transform="translate(189.130859 0)"/>
     </g>
    </g>
    <g id="line2d_31">
     <path d="M 408.354212 59.522031 
L 416.354212 59.522031 
L 424.354212 59.522031 
" style="fill: none; stroke: #c4880a; stroke-width: 2; stroke-linecap: square"/>
    </g>
    <g id="text_18">
     <!-- L-BFGS-B -->
     <g transform="translate(430.754212 62.322031) scale(0.08 -0.08)">
      <defs>
       <path id="DejaVuSans-2d" d="M 313 2009 
L 1997 2009 
L 1997 1497 
L 313 1497 
L 313 2009 
z
" transform="scale(0.015625)"/>
       <path id="DejaVuSans-46" d="M 628 4666 
L 3309 4666 
L 3309 4134 
L 1259 4134 
L 1259 2759 
L 3109 2759 
L 3109 2228 
L 1259 2228 
L 1259 0 
L 628 0 
L 628 4666 
z
" transform="scale(0.015625)"/>
       <path id="DejaVuSans-47" d="M 3809 666 
L 3809 1919 
L 2778 1919 
L 2778 2438 
L 4434 2438 
L 4434 434 
Q 4069 175 3628 42 
Q 3188 -91 2688 -91 
Q 1594 -91 976 548 
Q 359 1188 359 2328 
Q 359 3472 976 4111 
Q 1594 4750 2688 4750 
Q 3144 4750 3555 4637 
Q 3966 4525 4313 4306 
L 4313 3634 
Q 3963 3931 3569 4081 
Q 3175 4231 2741 4231 
Q 1884 4231 1454 3753 
Q 1025 3275 1025 2328 
Q 1025 1384 1454 906 
Q 1884 428 2741 428 
Q 3075 428 3337 486 
Q 3600 544 3809 666 
z
" transform="scale(0.015625)"/>
      </defs>
      <use xlink:href="#DejaVuSans-4c"/>
      <use xlink:href="#DejaVuSans-2d" transform="translate(53.962891 0)"/>
      <use xlink:href="#DejaVuSans-42" transform="translate(86.421875 0)"/>
      <use xlink:href="#DejaVuSans-46" transform="translate(155.025391 0)"/>
      <use xlink:href="#DejaVuSans-47" transform="translate(212.544922 0)"/>
      <use xlink:href="#DejaVuSans-53" transform="translate(290.035156 0)"/>
      <use xlink:href="#DejaVuSans-2d" transform="translate(353.511719 0)"/>
      <use xlink:href="#DejaVuSans-42" transform="translate(385.970703 0)"/>
     </g>
    </g>
    <g id="line2d_32">
     <path d="M 408.354212 71.264531 
L 416.354212 71.264531 
L 424.354212 71.264531 
" style="fill: none; stroke-dasharray: 3.7,1.6; stroke-dashoffset: 0; stroke: #4a8c3f; stroke-opacity: 0.8"/>
    </g>
    <g id="text_19">
     <!-- brute optimum = -0.3714 -->
     <g transform="translate(430.754212 74.064531) scale(0.08 -0.08)">
      <defs>
       <path id="DejaVuSans-75" d="M 544 1381 
L 544 3500 
L 1119 3500 
L 1119 1403 
Q 1119 906 1312 657 
Q 1506 409 1894 409 
Q 2359 409 2629 706 
Q 2900 1003 2900 1516 
L 2900 3500 
L 3475 3500 
L 3475 0 
L 2900 0 
L 2900 538 
Q 2691 219 2414 64 
Q 2138 -91 1772 -91 
Q 1169 -91 856 284 
Q 544 659 544 1381 
z
M 1991 3584 
L 1991 3584 
z
" transform="scale(0.015625)"/>
       <path id="DejaVuSans-6d" d="M 3328 2828 
Q 3544 3216 3844 3400 
Q 4144 3584 4550 3584 
Q 5097 3584 5394 3201 
Q 5691 2819 5691 2113 
L 5691 0 
L 5113 0 
L 5113 2094 
Q 5113 2597 4934 2840 
Q 4756 3084 4391 3084 
Q 3944 3084 3684 2787 
Q 3425 2491 3425 1978 
L 3425 0 
L 2847 0 
L 2847 2094 
Q 2847 2600 2669 2842 
Q 2491 3084 2119 3084 
Q 1678 3084 1418 2786 
Q 1159 2488 1159 1978 
L 1159 0 
L 581 0 
L 581 3500 
L 1159 3500 
L 1159 2956 
Q 1356 3278 1631 3431 
Q 1906 3584 2284 3584 
Q 2666 3584 2933 3390 
Q 3200 3197 3328 2828 
z
" transform="scale(0.015625)"/>
       <path id="DejaVuSans-2e" d="M 684 794 
L 1344 794 
L 1344 0 
L 684 0 
L 684 794 
z
" transform="scale(0.015625)"/>
       <path id="DejaVuSans-37" d="M 525 4666 
L 3525 4666 
L 3525 4397 
L 1831 0 
L 1172 0 
L 2766 4134 
L 525 4134 
L 525 4666 
z
" transform="scale(0.015625)"/>
      </defs>
      <use xlink:href="#DejaVuSans-62"/>
      <use xlink:href="#DejaVuSans-72" transform="translate(63.476562 0)"/>
      <use xlink:href="#DejaVuSans-75" transform="translate(104.589844 0)"/>
      <use xlink:href="#DejaVuSans-74" transform="translate(167.96875 0)"/>
      <use xlink:href="#DejaVuSans-65" transform="translate(207.177734 0)"/>
      <use xlink:href="#DejaVuSans-20" transform="translate(268.701172 0)"/>
      <use xlink:href="#DejaVuSans-6f" transform="translate(300.488281 0)"/>
      <use xlink:href="#DejaVuSans-70" transform="translate(361.669922 0)"/>
      <use xlink:href="#DejaVuSans-74" transform="translate(425.146484 0)"/>
      <use xlink:href="#DejaVuSans-69" transform="translate(464.355469 0)"/>
      <use xlink:href="#DejaVuSans-6d" transform="translate(492.138672 0)"/>
      <use xlink:href="#DejaVuSans-75" transform="translate(589.550781 0)"/>
      <use xlink:href="#DejaVuSans-6d" transform="translate(652.929688 0)"/>
      <use xlink:href="#DejaVuSans-20" transform="translate(750.341797 0)"/>
      <use xlink:href="#DejaVuSans-3d" transform="translate(782.128906 0)"/>
      <use xlink:href="#DejaVuSans-20" transform="translate(865.917969 0)"/>
      <use xlink:href="#DejaVuSans-2d" transform="translate(897.705078 0)"/>
      <use xlink:href="#DejaVuSans-30" transform="translate(933.789062 0)"/>
      <use xlink:href="#DejaVuSans-2e" transform="translate(997.412109 0)"/>
      <use xlink:href="#DejaVuSans-33" transform="translate(1029.199219 0)"/>
      <use xlink:href="#DejaVuSans-37" transform="translate(1092.822266 0)"/>
      <use xlink:href="#DejaVuSans-31" transform="translate(1156.445312 0)"/>
      <use xlink:href="#DejaVuSans-34" transform="translate(1220.068359 0)"/>
     </g>
    </g>
   </g>
  </g>
 </g>
 <defs>
  <clipPath id="pb35e499a01">
   <rect x="37.330781" y="25.558281" width="503.317181" height="207.388426"/>
  </clipPath>
 </defs>
</svg>
