<?xml version="1.0" encoding="utf-8" standalone="no"?>
<!DOCTYPE svg PUBLIC "-//W3C//DTD SVG 1.1//EN"
  "http://www.w3.org/Graphics/SVG/1.1/DTD/svg11.dtd">
<svg xmlns:xlink="http://www.w3.org/1999/xlink" width="548.39952pt" height="267.59952pt" viewBox="0 0 548.39952 267.59952" xmlns="http://www.w3.org/2000/svg" version="1.1">
 <metadata>
  <rdf:RDF xmlns:dc="http://purl.org/dc/elements/1.1/" xmlns:cc="http://creativecommons.org/ns#" xmlns:rdf="http://www.w3.org/1999/02/22-rdf-syntax-ns#">
   <cc:Work>
    <dc:type rdf:resource="http://purl.org/dc/dcmitype/StillImage"/>
    <dc:date>2026-04-29T16:45:46.464220</dc:date>
    <dc:format>image/svg+xml</dc:format>
    <dc:creator>
     <cc:Agent>
      <dc:title>Matplotlib v3.10.9, https://matplotlib.org/</dc:title>
     </cc:Agent>
    </dc:creator>
   </cc:Work>
  </rdf:RDF>
 </metadata>
 <defs>
  <style type="text/css">*{stroke-linejoin: round; stroke-linecap: butt}</style>
 </defs>
 <g id="figure_1">
  <g id="patch_1">
   <path d="M 0 267.59952 
L 548.39952 267.59952 
L 548.39952 0 
L 0 0 
L 0 267.59952 
z
" style="fill: none"/>
  </g>
  <g id="axes_1">
   <g id="patch_2">
    <path d="M 45.710313 232.946708 
L 541.19952 232.946708 
L 541.19952 25.558281 
L 45.710313 25.558281 
L 45.710313 232.946708 
z
" style="fill: none"/>
   </g>
   <g id="matplotlib.axis_1">
    <g id="xtick_1">
     <g id="line2d_1">
      <path d="M 68.232549 232.946708 
L 68.232549 25.558281 
" clip-path="url(#p6b476372a2)" style="fill: none; stroke: #d8d2c4; stroke-opacity: 0.7; stroke-width: 0.5; stroke-linecap: square"/>
     </g>
     <g id="line2d_2">
      <defs>
       <path id="mb4e3926376" d="M 0 0 
L 0 3.5 
" style="stroke: #6e6a64; stroke-width: 0.8"/>
      </defs>
      <g>
       <use xlink:href="#mb4e3926376" x="68.232549" y="232.946708" style="fill: #6e6a64; stroke: #6e6a64; stroke-width: 0.8"/>
      </g>
     </g>
     <g id="text_1">
      <!-- 8 -->
      <g style="fill: #6e6a64" transform="translate(65.687549 246.025458) scale(0.08 -0.08)">
       <defs>
        <path id="DejaVuSans-38" d="M 2034 2216 
Q 1584 2216 1326 1975 
Q 1069 1734 1069 1313 
Q 1069 891 1326 650 
Q 1584 409 2034 409 
Q 2484 409 2743 651 
Q 3003 894 3003 1313 
Q 3003 1734 2745 1975 
Q 2488 2216 2034 2216 
z
M 1403 2484 
Q 997 2584 770 2862 
Q 544 3141 544 3541 
Q 544 4100 942 4425 
Q 1341 4750 2034 4750 
Q 2731 4750 3128 4425 
Q 3525 4100 3525 3541 
Q 3525 3141 3298 2862 
Q 3072 2584 2669 2484 
Q 3125 2378 3379 2068 
Q 3634 1759 3634 1313 
Q 3634 634 3220 271 
Q 2806 -91 2034 -91 
Q 1263 -91 848 271 
Q 434 634 434 1313 
Q 434 1759 690 2068 
Q 947 2378 1403 2484 
z
M 1172 3481 
Q 1172 3119 1398 2916 
Q 1625 2713 2034 2713 
Q 2441 2713 2670 2916 
Q 2900 3119 2900 3481 
Q 2900 3844 2670 4047 
Q 2441 4250 2034 4250 
Q 1625 4250 1398 4047 
Q 1172 3844 1172 3481 
z
" transform="scale(0.015625)"/>
       </defs>
       <use xlink:href="#DejaVuSans-38"/>
      </g>
     </g>
    </g>
    <g id="xtick_2">
     <g id="line2d_3">
      <path d="M 158.321496 232.946708 
L 158.321496 25.558281 
" clip-path="url(#p6b476372a2)" style="fill: none; stroke: #d8d2c4; stroke-opacity: 0.7; stroke-width: 0.5; stroke-linecap: square"/>
     </g>
     <g id="line2d_4">
      <g>
       <use xlink:href="#mb4e3926376" x="158.321496" y="232.946708" style="fill: #6e6a64; stroke: #6e6a64; stroke-width: 0.8"/>
      </g>
     </g>
     <g id="text_2">
      <!-- 10 -->
      <g style="fill: #6e6a64" transform="translate(153.231496 246.025458) scale(0.08 -0.08)">
       <defs>
        <path id="DejaVuSans-31" d="M 794 531 
L 1825 531 
L 1825 4091 
L 703 3866 
L 703 4441 
L 1819 4666 
L 2450 4666 
L 2450 531 
L 3481 531 
L 3481 0 
L 794 0 
L 794 531 
z
" transform="scale(0.015625)"/>
        <path id="DejaVuSans-30" d="M 2034 4250 
Q 1547 4250 1301 3770 
Q 1056 3291 1056 2328 
Q 1056 1369 1301 889 
Q 1547 409 2034 409 
Q 2525 409 2770 889 
Q 3016 1369 3016 2328 
Q 3016 3291 2770 3770 
Q 2525 4250 2034 4250 
z
M 2034 4750 
Q 2819 4750 3233 4129 
Q 3647 3509 3647 2328 
Q 3647 1150 3233 529 
Q 2819 -91 2034 -91 
Q 1250 -91 836 529 
Q 422 1150 422 2328 
Q 422 3509 836 4129 
Q 1250 4750 2034 4750 
z
" transform="scale(0.015625)"/>
       </defs>
       <use xlink:href="#DejaVuSans-31"/>
       <use xlink:href="#DejaVuSans-30" transform="translate(63.623047 0)"/>
      </g>
     </g>
    </g>
    <g id="xtick_3">
     <g id="line2d_5">
      <path d="M 248.410443 232.946708 
L 248.410443 25.558281 
" clip-path="url(#p6b476372a2)" style="fill: none; stroke: #d8d2c4; stroke-opacity: 0.7; stroke-width: 0.5; stroke-linecap: square"/>
     </g>
     <g id="line2d_6">
      <g>
       <use xlink:href="#mb4e3926376" x="248.410443" y="232.946708" style="fill: #6e6a64; stroke: #6e6a64; stroke-width: 0.8"/>
      </g>
     </g>
     <g id="text_3">
      <!-- 12 -->
      <g style="fill: #6e6a64" transform="translate(243.320443 246.025458) scale(0.08 -0.08)">
       <defs>
        <path id="DejaVuSans-32" d="M 1228 531 
L 3431 531 
L 3431 0 
L 469 0 
L 469 531 
Q 828 903 1448 1529 
Q 2069 2156 2228 2338 
Q 2531 2678 2651 2914 
Q 2772 3150 2772 3378 
Q 2772 3750 2511 3984 
Q 2250 4219 1831 4219 
Q 1534 4219 1204 4116 
Q 875 4013 500 3803 
L 500 4441 
Q 881 4594 1212 4672 
Q 1544 4750 1819 4750 
Q 2544 4750 2975 4387 
Q 3406 4025 3406 3419 
Q 3406 3131 3298 2873 
Q 3191 2616 2906 2266 
Q 2828 2175 2409 1742 
Q 1991 1309 1228 531 
z
" transform="scale(0.015625)"/>
       </defs>
       <use xlink:href="#DejaVuSans-31"/>
       <use xlink:href="#DejaVuSans-32" transform="translate(63.623047 0)"/>
      </g>
     </g>
    </g>
    <g id="xtick_4">
     <g id="line2d_7">
      <path d="M 338.49939 232.946708 
L 338.49939 25.558281 
" clip-path="url(#p6b476372a2)" style="fill: none; stroke: #d8d2c4; stroke-opacity: 0.7; stroke-width: 0.5; stroke-linecap: square"/>
     </g>
     <g id="line2d_8">
      <g>
       <use xlink:href="#mb4e3926376" x="338.49939" y="232.946708" style="fill: #6e6a64; stroke: #6e6a64; stroke-width: 0.8"/>
      </g>
     </g>
     <g id="text_4">
      <!-- 14 -->
      <g style="fill: #6e6a64" transform="translate(333.40939 246.025458) scale(0.08 -0.08)">
       <defs>
        <path id="DejaVuSans-34" d="M 2419 4116 
L 825 1625 
L 2419 1625 
L 2419 4116 
z
M 2253 4666 
L 3047 4666 
L 3047 1625 
L 3713 1625 
L 3713 1100 
L 3047 1100 
L 3047 0 
L 2419 0 
L 2419 1100 
L 313 1100 
L 313 1709 
L 2253 4666 
z
" transform="scale(0.015625)"/>
       </defs>
       <use xlink:href="#DejaVuSans-31"/>
       <use xlink:href="#DejaVuSans-34" transform="translate(63.623047 0)"/>
      </g>
     </g>
    </g>
    <g id="xtick_5">
     <g id="line2d_9">
      <path d="M 428.588336 232.946708 
L 428.588336 25.558281 
" clip-path="url(#p6b476372a2)" style="fill: none; stroke: #d8d2c4; stroke-opacity: 0.7; stroke-width: 0.5; stroke-linecap: square"/>
     </g>
     <g id="line2d_10">
      <g>
       <use xlink:href="#mb4e3926376" x="428.588336" y="232.946708" style="fill: #6e6a64; stroke: #6e6a64; stroke-width: 0.8"/>
      </g>
     </g>
     <g id="text_5">
      <!-- 16 -->
      <g style="fill: #6e6a64" transform="translate(423.498336 246.025458) scale(0.08 -0.08)">
       <defs>
        <path id="DejaVuSans-36" d="M 2113 2584 
Q 1688 2584 1439 2293 
Q 1191 2003 1191 1497 
Q 1191 994 1439 701 
Q 1688 409 2113 409 
Q 2538 409 2786 701 
Q 3034 994 3034 1497 
Q 3034 2003 2786 2293 
Q 2538 2584 2113 2584 
z
M 3366 4563 
L 3366 3988 
Q 3128 4100 2886 4159 
Q 2644 4219 2406 4219 
Q 1781 4219 1451 3797 
Q 1122 3375 1075 2522 
Q 1259 2794 1537 2939 
Q 1816 3084 2150 3084 
Q 2853 3084 3261 2657 
Q 3669 2231 3669 1497 
Q 3669 778 3244 343 
Q 2819 -91 2113 -91 
Q 1303 -91 875 529 
Q 447 1150 447 2328 
Q 447 3434 972 4092 
Q 1497 4750 2381 4750 
Q 2619 4750 2861 4703 
Q 3103 4656 3366 4563 
z
" transform="scale(0.015625)"/>
       </defs>
       <use xlink:href="#DejaVuSans-31"/>
       <use xlink:href="#DejaVuSans-36" transform="translate(63.623047 0)"/>
      </g>
     </g>
    </g>
    <g id="xtick_6">
     <g id="line2d_11">
      <path d="M 518.677283 232.946708 
L 518.677283 25.558281 
" clip-path="url(#p6b476372a2)" style="fill: none; stroke: #d8d2c4; stroke-opacity: 0.7; stroke-width: 0.5; stroke-linecap: square"/>
     </g>
     <g id="line2d_12">
      <g>
       <use xlink:href="#mb4e3926376" x="518.677283" y="232.946708" style="fill: #6e6a64; stroke: #6e6a64; stroke-width: 0.8"/>
      </g>
     </g>
     <g id="text_6">
      <!-- 18 -->
      <g style="fill: #6e6a64" transform="translate(513.587283 246.025458) scale(0.08 -0.08)">
       <use xlink:href="#DejaVuSans-31"/>
       <use xlink:href="#DejaVuSans-38" transform="translate(63.623047 0)"/>
      </g>
     </g>
    </g>
    <g id="text_7">
     <!-- N (qubits) -->
     <g style="fill: #6e6a64" transform="translate(271.222807 258.527801) scale(0.09 -0.09)">
      <defs>
       <path id="DejaVuSans-4e" d="M 628 4666 
L 1478 4666 
L 3547 763 
L 3547 4666 
L 4159 4666 
L 4159 0 
L 3309 0 
L 1241 3903 
L 1241 0 
L 628 0 
L 628 4666 
z
" transform="scale(0.015625)"/>
       <path id="DejaVuSans-20" transform="scale(0.015625)"/>
       <path id="DejaVuSans-28" d="M 1984 4856 
Q 1566 4138 1362 3434 
Q 1159 2731 1159 2009 
Q 1159 1288 1364 580 
Q 1569 -128 1984 -844 
L 1484 -844 
Q 1016 -109 783 600 
Q 550 1309 550 2009 
Q 550 2706 781 3412 
Q 1013 4119 1484 4856 
L 1984 4856 
z
" transform="scale(0.015625)"/>
       <path id="DejaVuSans-71" d="M 947 1747 
Q 947 1113 1208 752 
Q 1469 391 1925 391 
Q 2381 391 2643 752 
Q 2906 1113 2906 1747 
Q 2906 2381 2643 2742 
Q 2381 3103 1925 3103 
Q 1469 3103 1208 2742 
Q 947 2381 947 1747 
z
M 2906 525 
Q 2725 213 2448 61 
Q 2172 -91 1784 -91 
Q 1150 -91 751 415 
Q 353 922 353 1747 
Q 353 2572 751 3078 
Q 1150 3584 1784 3584 
Q 2172 3584 2448 3432 
Q 2725 3281 2906 2969 
L 2906 3500 
L 3481 3500 
L 3481 -1331 
L 2906 -1331 
L 2906 525 
z
" transform="scale(0.015625)"/>
       <path id="DejaVuSans-75" d="M 544 1381 
L 544 3500 
L 1119 3500 
L 1119 1403 
Q 1119 906 1312 657 
Q 1506 409 1894 409 
Q 2359 409 2629 706 
Q 2900 1003 2900 1516 
L 2900 3500 
L 3475 3500 
L 3475 0 
L 2900 0 
L 2900 538 
Q 2691 219 2414 64 
Q 2138 -91 1772 -91 
Q 1169 -91 856 284 
Q 544 659 544 1381 
z
M 1991 3584 
L 1991 3584 
z
" transform="scale(0.015625)"/>
       <path id="DejaVuSans-62" d="M 3116 1747 
Q 3116 2381 2855 2742 
Q 2594 3103 2138 3103 
Q 1681 3103 1420 2742 
Q 1159 2381 1159 1747 
Q 1159 1113 1420 752 
Q 1681 391 2138 391 
Q 2594 391 2855 752 
Q 3116 1113 3116 1747 
z
M 1159 2969 
Q 1341 3281 1617 3432 
Q 1894 3584 2278 3584 
Q 2916 3584 3314 3078 
Q 3713 2572 3713 1747 
Q 3713 922 3314 415 
Q 2916 -91 2278 -91 
Q 1894 -91 1617 61 
Q 1341 213 1159 525 
L 1159 0 
L 581 0 
L 581 4863 
L 1159 4863 
L 1159 2969 
z
" transform="scale(0.015625)"/>
       <path id="DejaVuSans-69" d="M 603 3500 
L 1178 3500 
L 1178 0 
L 603 0 
L 603 3500 
z
M 603 4863 
L 1178 4863 
L 1178 4134 
L 603 4134 
L 603 4863 
z
" transform="scale(0.015625)"/>
       <path id="DejaVuSans-74" d="M 1172 4494 
L 1172 3500 
L 2356 3500 
L 2356 3053 
L 1172 3053 
L 1172 1153 
Q 1172 725 1289 603 
Q 1406 481 1766 481 
L 2356 481 
L 2356 0 
L 1766 0 
Q 1100 0 847 248 
Q 594 497 594 1153 
L 594 3053 
L 172 3053 
L 172 3500 
L 594 3500 
L 594 4494 
L 1172 4494 
z
" transform="scale(0.015625)"/>
       <path id="DejaVuSans-73" d="M 2834 3397 
L 2834 2853 
Q 2591 2978 2328 3040 
Q 2066 3103 1784 3103 
Q 1356 3103 1142 2972 
Q 928 2841 928 2578 
Q 928 2378 1081 2264 
Q 1234 2150 1697 2047 
L 1894 2003 
Q 2506 1872 2764 1633 
Q 3022 1394 3022 966 
Q 3022 478 2636 193 
Q 2250 -91 1575 -91 
Q 1294 -91 989 -36 
Q 684 19 347 128 
L 347 722 
Q 666 556 975 473 
Q 1284 391 1588 391 
Q 1994 391 2212 530 
Q 2431 669 2431 922 
Q 2431 1156 2273 1281 
Q 2116 1406 1581 1522 
L 1381 1569 
Q 847 1681 609 1914 
Q 372 2147 372 2553 
Q 372 3047 722 3315 
Q 1072 3584 1716 3584 
Q 2034 3584 2315 3537 
Q 2597 3491 2834 3397 
z
" transform="scale(0.015625)"/>
       <path id="DejaVuSans-29" d="M 513 4856 
L 1013 4856 
Q 1481 4119 1714 3412 
Q 1947 2706 1947 2009 
Q 1947 1309 1714 600 
Q 1481 -109 1013 -844 
L 513 -844 
Q 928 -128 1133 580 
Q 1338 1288 1338 2009 
Q 1338 2731 1133 3434 
Q 928 4138 513 4856 
z
" transform="scale(0.015625)"/>
      </defs>
      <use xlink:href="#DejaVuSans-4e"/>
      <use xlink:href="#DejaVuSans-20" transform="translate(74.804688 0)"/>
      <use xlink:href="#DejaVuSans-28" transform="translate(106.591797 0)"/>
      <use xlink:href="#DejaVuSans-71" transform="translate(145.605469 0)"/>
      <use xlink:href="#DejaVuSans-75" transform="translate(209.082031 0)"/>
      <use xlink:href="#DejaVuSans-62" transform="translate(272.460938 0)"/>
      <use xlink:href="#DejaVuSans-69" transform="translate(335.9375 0)"/>
      <use xlink:href="#DejaVuSans-74" transform="translate(363.720703 0)"/>
      <use xlink:href="#DejaVuSans-73" transform="translate(402.929688 0)"/>
      <use xlink:href="#DejaVuSans-29" transform="translate(455.029297 0)"/>
     </g>
    </g>
   </g>
   <g id="matplotlib.axis_2">
    <g id="ytick_1">
     <g id="line2d_13">
      <path d="M 45.710313 197.781513 
L 541.19952 197.781513 
" clip-path="url(#p6b476372a2)" style="fill: none; stroke: #d8d2c4; stroke-opacity: 0.7; stroke-width: 0.5; stroke-linecap: square"/>
     </g>
     <g id="line2d_14">
      <defs>
       <path id="mbd681101fa" d="M 0 0 
L -3.5 0 
" style="stroke: #6e6a64; stroke-width: 0.8"/>
      </defs>
      <g>
       <use xlink:href="#mbd681101fa" x="45.710313" y="197.781513" style="fill: #6e6a64; stroke: #6e6a64; stroke-width: 0.8"/>
      </g>
     </g>
     <g id="text_8">
      <!-- $\mathdefault{10^{-4}}$ -->
      <g style="fill: #6e6a64" transform="translate(19.910312 200.820888) scale(0.08 -0.08)">
       <defs>
        <path id="DejaVuSans-2212" d="M 678 2272 
L 4684 2272 
L 4684 1741 
L 678 1741 
L 678 2272 
z
" transform="scale(0.015625)"/>
       </defs>
       <use xlink:href="#DejaVuSans-31" transform="translate(0 0.684375)"/>
       <use xlink:href="#DejaVuSans-30" transform="translate(63.623047 0.684375)"/>
       <use xlink:href="#DejaVuSans-2212" transform="translate(128.203125 38.965625) scale(0.7)"/>
       <use xlink:href="#DejaVuSans-34" transform="translate(186.855469 38.965625) scale(0.7)"/>
      </g>
     </g>
    </g>
    <g id="ytick_2">
     <g id="line2d_15">
      <path d="M 45.710313 158.596111 
L 541.19952 158.596111 
" clip-path="url(#p6b476372a2)" style="fill: none; stroke: #d8d2c4; stroke-opacity: 0.7; stroke-width: 0.5; stroke-linecap: square"/>
     </g>
     <g id="line2d_16">
      <g>
       <use xlink:href="#mbd681101fa" x="45.710313" y="158.596111" style="fill: #6e6a64; stroke: #6e6a64; stroke-width: 0.8"/>
      </g>
     </g>
     <g id="text_9">
      <!-- $\mathdefault{10^{-3}}$ -->
      <g style="fill: #6e6a64" transform="translate(19.910312 161.635486) scale(0.08 -0.08)">
       <defs>
        <path id="DejaVuSans-33" d="M 2597 2516 
Q 3050 2419 3304 2112 
Q 3559 1806 3559 1356 
Q 3559 666 3084 287 
Q 2609 -91 1734 -91 
Q 1441 -91 1130 -33 
Q 819 25 488 141 
L 488 750 
Q 750 597 1062 519 
Q 1375 441 1716 441 
Q 2309 441 2620 675 
Q 2931 909 2931 1356 
Q 2931 1769 2642 2001 
Q 2353 2234 1838 2234 
L 1294 2234 
L 1294 2753 
L 1863 2753 
Q 2328 2753 2575 2939 
Q 2822 3125 2822 3475 
Q 2822 3834 2567 4026 
Q 2313 4219 1838 4219 
Q 1578 4219 1281 4162 
Q 984 4106 628 3988 
L 628 4550 
Q 988 4650 1302 4700 
Q 1616 4750 1894 4750 
Q 2613 4750 3031 4423 
Q 3450 4097 3450 3541 
Q 3450 3153 3228 2886 
Q 3006 2619 2597 2516 
z
" transform="scale(0.015625)"/>
       </defs>
       <use xlink:href="#DejaVuSans-31" transform="translate(0 0.765625)"/>
       <use xlink:href="#DejaVuSans-30" transform="translate(63.623047 0.765625)"/>
       <use xlink:href="#DejaVuSans-2212" transform="translate(128.203125 39.046875) scale(0.7)"/>
       <use xlink:href="#DejaVuSans-33" transform="translate(186.855469 39.046875) scale(0.7)"/>
      </g>
     </g>
    </g>
    <g id="ytick_3">
     <g id="line2d_17">
      <path d="M 45.710313 119.410708 
L 541.19952 119.410708 
" clip-path="url(#p6b476372a2)" style="fill: none; stroke: #d8d2c4; stroke-opacity: 0.7; stroke-width: 0.5; stroke-linecap: square"/>
     </g>
     <g id="line2d_18">
      <g>
       <use xlink:href="#mbd681101fa" x="45.710313" y="119.410708" style="fill: #6e6a64; stroke: #6e6a64; stroke-width: 0.8"/>
      </g>
     </g>
     <g id="text_10">
      <!-- $\mathdefault{10^{-2}}$ -->
      <g style="fill: #6e6a64" transform="translate(19.910312 122.450083) scale(0.08 -0.08)">
       <use xlink:href="#DejaVuSans-31" transform="translate(0 0.765625)"/>
       <use xlink:href="#DejaVuSans-30" transform="translate(63.623047 0.765625)"/>
       <use xlink:href="#DejaVuSans-2212" transform="translate(128.203125 39.046875) scale(0.7)"/>
       <use xlink:href="#DejaVuSans-32" transform="translate(186.855469 39.046875) scale(0.7)"/>
      </g>
     </g>
    </g>
    <g id="ytick_4">
     <g id="line2d_19">
      <path d="M 45.710313 80.225305 
L 541.19952 80.225305 
" clip-path="url(#p6b476372a2)" style="fill: none; stroke: #d8d2c4; stroke-opacity: 0.7; stroke-width: 0.5; stroke-linecap: square"/>
     </g>
     <g id="line2d_20">
      <g>
       <use xlink:href="#mbd681101fa" x="45.710313" y="80.225305" style="fill: #6e6a64; stroke: #6e6a64; stroke-width: 0.8"/>
      </g>
     </g>
     <g id="text_11">
      <!-- $\mathdefault{10^{-1}}$ -->
      <g style="fill: #6e6a64" transform="translate(19.910312 83.26468) scale(0.08 -0.08)">
       <use xlink:href="#DejaVuSans-31" transform="translate(0 0.684375)"/>
       <use xlink:href="#DejaVuSans-30" transform="translate(63.623047 0.684375)"/>
       <use xlink:href="#DejaVuSans-2212" transform="translate(128.203125 38.965625) scale(0.7)"/>
       <use xlink:href="#DejaVuSans-31" transform="translate(186.855469 38.965625) scale(0.7)"/>
      </g>
     </g>
    </g>
    <g id="ytick_5">
     <g id="line2d_21">
      <path d="M 45.710313 41.039902 
L 541.19952 41.039902 
" clip-path="url(#p6b476372a2)" style="fill: none; stroke: #d8d2c4; stroke-opacity: 0.7; stroke-width: 0.5; stroke-linecap: square"/>
     </g>
     <g id="line2d_22">
      <g>
       <use xlink:href="#mbd681101fa" x="45.710313" y="41.039902" style="fill: #6e6a64; stroke: #6e6a64; stroke-width: 0.8"/>
      </g>
     </g>
     <g id="text_12">
      <!-- $\mathdefault{10^{0}}$ -->
      <g style="fill: #6e6a64" transform="translate(24.630313 44.079277) scale(0.08 -0.08)">
       <use xlink:href="#DejaVuSans-31" transform="translate(0 0.765625)"/>
       <use xlink:href="#DejaVuSans-30" transform="translate(63.623047 0.765625)"/>
       <use xlink:href="#DejaVuSans-30" transform="translate(128.203125 39.046875) scale(0.7)"/>
      </g>
     </g>
    </g>
    <g id="ytick_6">
     <g id="line2d_23">
      <defs>
       <path id="meaa6b11687" d="M 0 0 
L -2 0 
" style="stroke: #000000; stroke-width: 0.6"/>
      </defs>
      <g>
       <use xlink:href="#meaa6b11687" x="45.710313" y="225.170935" style="stroke: #000000; stroke-width: 0.6"/>
      </g>
     </g>
    </g>
    <g id="ytick_7">
     <g id="line2d_24">
      <g>
       <use xlink:href="#meaa6b11687" x="45.710313" y="218.270728" style="stroke: #000000; stroke-width: 0.6"/>
      </g>
     </g>
    </g>
    <g id="ytick_8">
     <g id="line2d_25">
      <g>
       <use xlink:href="#meaa6b11687" x="45.710313" y="213.374953" style="stroke: #000000; stroke-width: 0.6"/>
      </g>
     </g>
    </g>
    <g id="ytick_9">
     <g id="line2d_26">
      <g>
       <use xlink:href="#meaa6b11687" x="45.710313" y="209.577495" style="stroke: #000000; stroke-width: 0.6"/>
      </g>
     </g>
    </g>
    <g id="ytick_10">
     <g id="line2d_27">
      <g>
       <use xlink:href="#meaa6b11687" x="45.710313" y="206.474746" style="stroke: #000000; stroke-width: 0.6"/>
      </g>
     </g>
    </g>
    <g id="ytick_11">
     <g id="line2d_28">
      <g>
       <use xlink:href="#meaa6b11687" x="45.710313" y="203.851409" style="stroke: #000000; stroke-width: 0.6"/>
      </g>
     </g>
    </g>
    <g id="ytick_12">
     <g id="line2d_29">
      <g>
       <use xlink:href="#meaa6b11687" x="45.710313" y="201.578971" style="stroke: #000000; stroke-width: 0.6"/>
      </g>
     </g>
    </g>
    <g id="ytick_13">
     <g id="line2d_30">
      <g>
       <use xlink:href="#meaa6b11687" x="45.710313" y="199.574539" style="stroke: #000000; stroke-width: 0.6"/>
      </g>
     </g>
    </g>
    <g id="ytick_14">
     <g id="line2d_31">
      <g>
       <use xlink:href="#meaa6b11687" x="45.710313" y="185.985532" style="stroke: #000000; stroke-width: 0.6"/>
      </g>
     </g>
    </g>
    <g id="ytick_15">
     <g id="line2d_32">
      <g>
       <use xlink:href="#meaa6b11687" x="45.710313" y="179.085325" style="stroke: #000000; stroke-width: 0.6"/>
      </g>
     </g>
    </g>
    <g id="ytick_16">
     <g id="line2d_33">
      <g>
       <use xlink:href="#meaa6b11687" x="45.710313" y="174.18955" style="stroke: #000000; stroke-width: 0.6"/>
      </g>
     </g>
    </g>
    <g id="ytick_17">
     <g id="line2d_34">
      <g>
       <use xlink:href="#meaa6b11687" x="45.710313" y="170.392092" style="stroke: #000000; stroke-width: 0.6"/>
      </g>
     </g>
    </g>
    <g id="ytick_18">
     <g id="line2d_35">
      <g>
       <use xlink:href="#meaa6b11687" x="45.710313" y="167.289343" style="stroke: #000000; stroke-width: 0.6"/>
      </g>
     </g>
    </g>
    <g id="ytick_19">
     <g id="line2d_36">
      <g>
       <use xlink:href="#meaa6b11687" x="45.710313" y="164.666006" style="stroke: #000000; stroke-width: 0.6"/>
      </g>
     </g>
    </g>
    <g id="ytick_20">
     <g id="line2d_37">
      <g>
       <use xlink:href="#meaa6b11687" x="45.710313" y="162.393568" style="stroke: #000000; stroke-width: 0.6"/>
      </g>
     </g>
    </g>
    <g id="ytick_21">
     <g id="line2d_38">
      <g>
       <use xlink:href="#meaa6b11687" x="45.710313" y="160.389136" style="stroke: #000000; stroke-width: 0.6"/>
      </g>
     </g>
    </g>
    <g id="ytick_22">
     <g id="line2d_39">
      <g>
       <use xlink:href="#meaa6b11687" x="45.710313" y="146.800129" style="stroke: #000000; stroke-width: 0.6"/>
      </g>
     </g>
    </g>
    <g id="ytick_23">
     <g id="line2d_40">
      <g>
       <use xlink:href="#meaa6b11687" x="45.710313" y="139.899922" style="stroke: #000000; stroke-width: 0.6"/>
      </g>
     </g>
    </g>
    <g id="ytick_24">
     <g id="line2d_41">
      <g>
       <use xlink:href="#meaa6b11687" x="45.710313" y="135.004147" style="stroke: #000000; stroke-width: 0.6"/>
      </g>
     </g>
    </g>
    <g id="ytick_25">
     <g id="line2d_42">
      <g>
       <use xlink:href="#meaa6b11687" x="45.710313" y="131.206689" style="stroke: #000000; stroke-width: 0.6"/>
      </g>
     </g>
    </g>
    <g id="ytick_26">
     <g id="line2d_43">
      <g>
       <use xlink:href="#meaa6b11687" x="45.710313" y="128.10394" style="stroke: #000000; stroke-width: 0.6"/>
      </g>
     </g>
    </g>
    <g id="ytick_27">
     <g id="line2d_44">
      <g>
       <use xlink:href="#meaa6b11687" x="45.710313" y="125.480603" style="stroke: #000000; stroke-width: 0.6"/>
      </g>
     </g>
    </g>
    <g id="ytick_28">
     <g id="line2d_45">
      <g>
       <use xlink:href="#meaa6b11687" x="45.710313" y="123.208166" style="stroke: #000000; stroke-width: 0.6"/>
      </g>
     </g>
    </g>
    <g id="ytick_29">
     <g id="line2d_46">
      <g>
       <use xlink:href="#meaa6b11687" x="45.710313" y="121.203733" style="stroke: #000000; stroke-width: 0.6"/>
      </g>
     </g>
    </g>
    <g id="ytick_30">
     <g id="line2d_47">
      <g>
       <use xlink:href="#meaa6b11687" x="45.710313" y="107.614726" style="stroke: #000000; stroke-width: 0.6"/>
      </g>
     </g>
    </g>
    <g id="ytick_31">
     <g id="line2d_48">
      <g>
       <use xlink:href="#meaa6b11687" x="45.710313" y="100.714519" style="stroke: #000000; stroke-width: 0.6"/>
      </g>
     </g>
    </g>
    <g id="ytick_32">
     <g id="line2d_49">
      <g>
       <use xlink:href="#meaa6b11687" x="45.710313" y="95.818744" style="stroke: #000000; stroke-width: 0.6"/>
      </g>
     </g>
    </g>
    <g id="ytick_33">
     <g id="line2d_50">
      <g>
       <use xlink:href="#meaa6b11687" x="45.710313" y="92.021287" style="stroke: #000000; stroke-width: 0.6"/>
      </g>
     </g>
    </g>
    <g id="ytick_34">
     <g id="line2d_51">
      <g>
       <use xlink:href="#meaa6b11687" x="45.710313" y="88.918537" style="stroke: #000000; stroke-width: 0.6"/>
      </g>
     </g>
    </g>
    <g id="ytick_35">
     <g id="line2d_52">
      <g>
       <use xlink:href="#meaa6b11687" x="45.710313" y="86.295201" style="stroke: #000000; stroke-width: 0.6"/>
      </g>
     </g>
    </g>
    <g id="ytick_36">
     <g id="line2d_53">
      <g>
       <use xlink:href="#meaa6b11687" x="45.710313" y="84.022763" style="stroke: #000000; stroke-width: 0.6"/>
      </g>
     </g>
    </g>
    <g id="ytick_37">
     <g id="line2d_54">
      <g>
       <use xlink:href="#meaa6b11687" x="45.710313" y="82.018331" style="stroke: #000000; stroke-width: 0.6"/>
      </g>
     </g>
    </g>
    <g id="ytick_38">
     <g id="line2d_55">
      <g>
       <use xlink:href="#meaa6b11687" x="45.710313" y="68.429323" style="stroke: #000000; stroke-width: 0.6"/>
      </g>
     </g>
    </g>
    <g id="ytick_39">
     <g id="line2d_56">
      <g>
       <use xlink:href="#meaa6b11687" x="45.710313" y="61.529116" style="stroke: #000000; stroke-width: 0.6"/>
      </g>
     </g>
    </g>
    <g id="ytick_40">
     <g id="line2d_57">
      <g>
       <use xlink:href="#meaa6b11687" x="45.710313" y="56.633342" style="stroke: #000000; stroke-width: 0.6"/>
      </g>
     </g>
    </g>
    <g id="ytick_41">
     <g id="line2d_58">
      <g>
       <use xlink:href="#meaa6b11687" x="45.710313" y="52.835884" style="stroke: #000000; stroke-width: 0.6"/>
      </g>
     </g>
    </g>
    <g id="ytick_42">
     <g id="line2d_59">
      <g>
       <use xlink:href="#meaa6b11687" x="45.710313" y="49.733135" style="stroke: #000000; stroke-width: 0.6"/>
      </g>
     </g>
    </g>
    <g id="ytick_43">
     <g id="line2d_60">
      <g>
       <use xlink:href="#meaa6b11687" x="45.710313" y="47.109798" style="stroke: #000000; stroke-width: 0.6"/>
      </g>
     </g>
    </g>
    <g id="ytick_44">
     <g id="line2d_61">
      <g>
       <use xlink:href="#meaa6b11687" x="45.710313" y="44.83736" style="stroke: #000000; stroke-width: 0.6"/>
      </g>
     </g>
    </g>
    <g id="ytick_45">
     <g id="line2d_62">
      <g>
       <use xlink:href="#meaa6b11687" x="45.710313" y="42.832928" style="stroke: #000000; stroke-width: 0.6"/>
      </g>
     </g>
    </g>
    <g id="ytick_46">
     <g id="line2d_63">
      <g>
       <use xlink:href="#meaa6b11687" x="45.710313" y="29.24392" style="stroke: #000000; stroke-width: 0.6"/>
      </g>
     </g>
    </g>
    <g id="text_13">
     <!-- seconds -->
     <g style="fill: #6e6a64" transform="translate(14.038594 147.646244) rotate(-90) scale(0.09 -0.09)">
      <defs>
       <path id="DejaVuSans-65" d="M 3597 1894 
L 3597 1613 
L 953 1613 
Q 991 1019 1311 708 
Q 1631 397 2203 397 
Q 2534 397 2845 478 
Q 3156 559 3463 722 
L 3463 178 
Q 3153 47 2828 -22 
Q 2503 -91 2169 -91 
Q 1331 -91 842 396 
Q 353 884 353 1716 
Q 353 2575 817 3079 
Q 1281 3584 2069 3584 
Q 2775 3584 3186 3129 
Q 3597 2675 3597 1894 
z
M 3022 2063 
Q 3016 2534 2758 2815 
Q 2500 3097 2075 3097 
Q 1594 3097 1305 2825 
Q 1016 2553 972 2059 
L 3022 2063 
z
" transform="scale(0.015625)"/>
       <path id="DejaVuSans-63" d="M 3122 3366 
L 3122 2828 
Q 2878 2963 2633 3030 
Q 2388 3097 2138 3097 
Q 1578 3097 1268 2742 
Q 959 2388 959 1747 
Q 959 1106 1268 751 
Q 1578 397 2138 397 
Q 2388 397 2633 464 
Q 2878 531 3122 666 
L 3122 134 
Q 2881 22 2623 -34 
Q 2366 -91 2075 -91 
Q 1284 -91 818 406 
Q 353 903 353 1747 
Q 353 2603 823 3093 
Q 1294 3584 2113 3584 
Q 2378 3584 2631 3529 
Q 2884 3475 3122 3366 
z
" transform="scale(0.015625)"/>
       <path id="DejaVuSans-6f" d="M 1959 3097 
Q 1497 3097 1228 2736 
Q 959 2375 959 1747 
Q 959 1119 1226 758 
Q 1494 397 1959 397 
Q 2419 397 2687 759 
Q 2956 1122 2956 1747 
Q 2956 2369 2687 2733 
Q 2419 3097 1959 3097 
z
M 1959 3584 
Q 2709 3584 3137 3096 
Q 3566 2609 3566 1747 
Q 3566 888 3137 398 
Q 2709 -91 1959 -91 
Q 1206 -91 779 398 
Q 353 888 353 1747 
Q 353 2609 779 3096 
Q 1206 3584 1959 3584 
z
" transform="scale(0.015625)"/>
       <path id="DejaVuSans-6e" d="M 3513 2113 
L 3513 0 
L 2938 0 
L 2938 2094 
Q 2938 2591 2744 2837 
Q 2550 3084 2163 3084 
Q 1697 3084 1428 2787 
Q 1159 2491 1159 1978 
L 1159 0 
L 581 0 
L 581 3500 
L 1159 3500 
L 1159 2956 
Q 1366 3272 1645 3428 
Q 1925 3584 2291 3584 
Q 2894 3584 3203 3211 
Q 3513 2838 3513 2113 
z
" transform="scale(0.015625)"/>
       <path id="DejaVuSans-64" d="M 2906 2969 
L 2906 4863 
L 3481 4863 
L 3481 0 
L 2906 0 
L 2906 525 
Q 2725 213 2448 61 
Q 2172 -91 1784 -91 
Q 1150 -91 751 415 
Q 353 922 353 1747 
Q 353 2572 751 3078 
Q 1150 3584 1784 3584 
Q 2172 3584 2448 3432 
Q 2725 3281 2906 2969 
z
M 947 1747 
Q 947 1113 1208 752 
Q 1469 391 1925 391 
Q 2381 391 2643 752 
Q 2906 1113 2906 1747 
Q 2906 2381 2643 2742 
Q 2381 3103 1925 3103 
Q 1469 3103 1208 2742 
Q 947 2381 947 1747 
z
" transform="scale(0.015625)"/>
      </defs>
      <use xlink:href="#DejaVuSans-73"/>
      <use xlink:href="#DejaVuSans-65" transform="translate(52.099609 0)"/>
      <use xlink:href="#DejaVuSans-63" transform="translate(113.623047 0)"/>
      <use xlink:href="#DejaVuSans-6f" transform="translate(168.603516 0)"/>
      <use xlink:href="#DejaVuSans-6e" transform="translate(229.785156 0)"/>
      <use xlink:href="#DejaVuSans-64" transform="translate(293.164062 0)"/>
      <use xlink:href="#DejaVuSans-73" transform="translate(356.640625 0)"/>
     </g>
    </g>
   </g>
   <g id="line2d_64">
    <path d="M 68.232549 142.133506 
L 158.321496 130.812364 
L 248.410443 119.278905 
L 338.49939 98.327399 
L 428.588336 77.874833 
L 518.677283 34.985028 
" clip-path="url(#p6b476372a2)" style="fill: none; stroke: #8e44ad; stroke-width: 2; stroke-linecap: square"/>
    <defs>
     <path id="m6819ad9b0c" d="M 0 3 
C 0.795609 3 1.55874 2.683901 2.12132 2.12132 
C 2.683901 1.55874 3 0.795609 3 0 
C 3 -0.795609 2.683901 -1.55874 2.12132 -2.12132 
C 1.55874 -2.683901 0.795609 -3 0 -3 
C -0.795609 -3 -1.55874 -2.683901 -2.12132 -2.12132 
C -2.683901 -1.55874 -3 -0.795609 -3 0 
C -3 0.795609 -2.683901 1.55874 -2.12132 2.12132 
C -1.55874 2.683901 -0.795609 3 0 3 
z
" style="stroke: #8e44ad"/>
    </defs>
    <g clip-path="url(#p6b476372a2)">
     <use xlink:href="#m6819ad9b0c" x="68.232549" y="142.133506" style="fill: #8e44ad; stroke: #8e44ad"/>
     <use xlink:href="#m6819ad9b0c" x="158.321496" y="130.812364" style="fill: #8e44ad; stroke: #8e44ad"/>
     <use xlink:href="#m6819ad9b0c" x="248.410443" y="119.278905" style="fill: #8e44ad; stroke: #8e44ad"/>
     <use xlink:href="#m6819ad9b0c" x="338.49939" y="98.327399" style="fill: #8e44ad; stroke: #8e44ad"/>
     <use xlink:href="#m6819ad9b0c" x="428.588336" y="77.874833" style="fill: #8e44ad; stroke: #8e44ad"/>
     <use xlink:href="#m6819ad9b0c" x="518.677283" y="34.985028" style="fill: #8e44ad; stroke: #8e44ad"/>
    </g>
   </g>
   <g id="line2d_65">
    <path d="M 68.232549 215.09916 
L 158.321496 223.519961 
L 248.410443 221.741382 
L 338.49939 222.632448 
L 428.588336 221.996321 
L 518.677283 208.173192 
" clip-path="url(#p6b476372a2)" style="fill: none; stroke: #0e7490; stroke-width: 2; stroke-linecap: square"/>
    <defs>
     <path id="mce9a734c43" d="M 0 3 
C 0.795609 3 1.55874 2.683901 2.12132 2.12132 
C 2.683901 1.55874 3 0.795609 3 0 
C 3 -0.795609 2.683901 -1.55874 2.12132 -2.12132 
C 1.55874 -2.683901 0.795609 -3 0 -3 
C -0.795609 -3 -1.55874 -2.683901 -2.12132 -2.12132 
C -2.683901 -1.55874 -3 -0.795609 -3 0 
C -3 0.795609 -2.683901 1.55874 -2.12132 2.12132 
C -1.55874 2.683901 -0.795609 3 0 3 
z
" style="stroke: #0e7490"/>
    </defs>
    <g clip-path="url(#p6b476372a2)">
     <use xlink:href="#mce9a734c43" x="68.232549" y="215.09916" style="fill: #0e7490; stroke: #0e7490"/>
     <use xlink:href="#mce9a734c43" x="158.321496" y="223.519961" style="fill: #0e7490; stroke: #0e7490"/>
     <use xlink:href="#mce9a734c43" x="248.410443" y="221.741382" style="fill: #0e7490; stroke: #0e7490"/>
     <use xlink:href="#mce9a734c43" x="338.49939" y="222.632448" style="fill: #0e7490; stroke: #0e7490"/>
     <use xlink:href="#mce9a734c43" x="428.588336" y="221.996321" style="fill: #0e7490; stroke: #0e7490"/>
     <use xlink:href="#mce9a734c43" x="518.677283" y="208.173192" style="fill: #0e7490; stroke: #0e7490"/>
    </g>
   </g>
   <g id="line2d_66">
    <path d="M 68.232549 189.938776 
L 158.321496 168.463464 
L 248.410443 147.909795 
L 338.49939 136.092066 
L 428.588336 112.427645 
L 518.677283 83.824309 
" clip-path="url(#p6b476372a2)" style="fill: none; stroke-dasharray: 7.4,3.2; stroke-dashoffset: 0; stroke: #4a8c3f; stroke-width: 2"/>
    <defs>
     <path id="mc4d2644c9f" d="M 0 3 
C 0.795609 3 1.55874 2.683901 2.12132 2.12132 
C 2.683901 1.55874 3 0.795609 3 0 
C 3 -0.795609 2.683901 -1.55874 2.12132 -2.12132 
C 1.55874 -2.683901 0.795609 -3 0 -3 
C -0.795609 -3 -1.55874 -2.683901 -2.12132 -2.12132 
C -2.683901 -1.55874 -3 -0.795609 -3 0 
C -3 0.795609 -2.683901 1.55874 -2.12132 2.12132 
C -1.55874 2.683901 -0.795609 3 0 3 
z
" style="stroke: #4a8c3f"/>
    </defs>
    <g clip-path="url(#p6b476372a2)">
     <use xlink:href="#mc4d2644c9f" x="68.232549" y="189.938776" style="fill: #4a8c3f; stroke: #4a8c3f"/>
     <use xlink:href="#mc4d2644c9f" x="158.321496" y="168.463464" style="fill: #4a8c3f; stroke: #4a8c3f"/>
     <use xlink:href="#mc4d2644c9f" x="248.410443" y="147.909795" style="fill: #4a8c3f; stroke: #4a8c3f"/>
     <use xlink:href="#mc4d2644c9f" x="338.49939" y="136.092066" style="fill: #4a8c3f; stroke: #4a8c3f"/>
     <use xlink:href="#mc4d2644c9f" x="428.588336" y="112.427645" style="fill: #4a8c3f; stroke: #4a8c3f"/>
     <use xlink:href="#mc4d2644c9f" x="518.677283" y="83.824309" style="fill: #4a8c3f; stroke: #4a8c3f"/>
    </g>
   </g>
   <g id="patch_3">
    <path d="M 45.710313 232.946708 
L 45.710313 25.558281 
" style="fill: none; stroke: #d8d2c4; stroke-width: 0.8; stroke-linejoin: miter; stroke-linecap: square"/>
   </g>
   <g id="patch_4">
    <path d="M 541.19952 232.946708 
L 541.19952 25.558281 
" style="fill: none; stroke: #d8d2c4; stroke-width: 0.8; stroke-linejoin: miter; stroke-linecap: square"/>
   </g>
   <g id="patch_5">
    <path d="M 45.710312 232.946708 
L 541.19952 232.946708 
" style="fill: none; stroke: #d8d2c4; stroke-width: 0.8; stroke-linejoin: miter; stroke-linecap: square"/>
   </g>
   <g id="patch_6">
    <path d="M 45.710312 25.558281 
L 541.19952 25.558281 
" style="fill: none; stroke: #d8d2c4; stroke-width: 0.8; stroke-linejoin: miter; stroke-linecap: square"/>
   </g>
   <g id="text_14">
    <!-- Wall-clock per operation, increasing N · log-y -->
    <g style="fill: #1a1a2e" transform="translate(170.358901 15.558281) scale(0.11 -0.11)">
     <defs>
      <path id="DejaVuSans-57" d="M 213 4666 
L 850 4666 
L 1831 722 
L 2809 4666 
L 3519 4666 
L 4500 722 
L 5478 4666 
L 6119 4666 
L 4947 0 
L 4153 0 
L 3169 4050 
L 2175 0 
L 1381 0 
L 213 4666 
z
" transform="scale(0.015625)"/>
      <path id="DejaVuSans-61" d="M 2194 1759 
Q 1497 1759 1228 1600 
Q 959 1441 959 1056 
Q 959 750 1161 570 
Q 1363 391 1709 391 
Q 2188 391 2477 730 
Q 2766 1069 2766 1631 
L 2766 1759 
L 2194 1759 
z
M 3341 1997 
L 3341 0 
L 2766 0 
L 2766 531 
Q 2569 213 2275 61 
Q 1981 -91 1556 -91 
Q 1019 -91 701 211 
Q 384 513 384 1019 
Q 384 1609 779 1909 
Q 1175 2209 1959 2209 
L 2766 2209 
L 2766 2266 
Q 2766 2663 2505 2880 
Q 2244 3097 1772 3097 
Q 1472 3097 1187 3025 
Q 903 2953 641 2809 
L 641 3341 
Q 956 3463 1253 3523 
Q 1550 3584 1831 3584 
Q 2591 3584 2966 3190 
Q 3341 2797 3341 1997 
z
" transform="scale(0.015625)"/>
      <path id="DejaVuSans-6c" d="M 603 4863 
L 1178 4863 
L 1178 0 
L 603 0 
L 603 4863 
z
" transform="scale(0.015625)"/>
      <path id="DejaVuSans-2d" d="M 313 2009 
L 1997 2009 
L 1997 1497 
L 313 1497 
L 313 2009 
z
" transform="scale(0.015625)"/>
      <path id="DejaVuSans-6b" d="M 581 4863 
L 1159 4863 
L 1159 1991 
L 2875 3500 
L 3609 3500 
L 1753 1863 
L 3688 0 
L 2938 0 
L 1159 1709 
L 1159 0 
L 581 0 
L 581 4863 
z
" transform="scale(0.015625)"/>
      <path id="DejaVuSans-70" d="M 1159 525 
L 1159 -1331 
L 581 -1331 
L 581 3500 
L 1159 3500 
L 1159 2969 
Q 1341 3281 1617 3432 
Q 1894 3584 2278 3584 
Q 2916 3584 3314 3078 
Q 3713 2572 3713 1747 
Q 3713 922 3314 415 
Q 2916 -91 2278 -91 
Q 1894 -91 1617 61 
Q 1341 213 1159 525 
z
M 3116 1747 
Q 3116 2381 2855 2742 
Q 2594 3103 2138 3103 
Q 1681 3103 1420 2742 
Q 1159 2381 1159 1747 
Q 1159 1113 1420 752 
Q 1681 391 2138 391 
Q 2594 391 2855 752 
Q 3116 1113 3116 1747 
z
" transform="scale(0.015625)"/>
      <path id="DejaVuSans-72" d="M 2631 2963 
Q 2534 3019 2420 3045 
Q 2306 3072 2169 3072 
Q 1681 3072 1420 2755 
Q 1159 2438 1159 1844 
L 1159 0 
L 581 0 
L 581 3500 
L 1159 3500 
L 1159 2956 
Q 1341 3275 1631 3429 
Q 1922 3584 2338 3584 
Q 2397 3584 2469 3576 
Q 2541 3569 2628 3553 
L 2631 2963 
z
" transform="scale(0.015625)"/>
      <path id="DejaVuSans-2c" d="M 750 794 
L 1409 794 
L 1409 256 
L 897 -744 
L 494 -744 
L 750 256 
L 750 794 
z
" transform="scale(0.015625)"/>
      <path id="DejaVuSans-67" d="M 2906 1791 
Q 2906 2416 2648 2759 
Q 2391 3103 1925 3103 
Q 1463 3103 1205 2759 
Q 947 2416 947 1791 
Q 947 1169 1205 825 
Q 1463 481 1925 481 
Q 2391 481 2648 825 
Q 2906 1169 2906 1791 
z
M 3481 434 
Q 3481 -459 3084 -895 
Q 2688 -1331 1869 -1331 
Q 1566 -1331 1297 -1286 
Q 1028 -1241 775 -1147 
L 775 -588 
Q 1028 -725 1275 -790 
Q 1522 -856 1778 -856 
Q 2344 -856 2625 -561 
Q 2906 -266 2906 331 
L 2906 616 
Q 2728 306 2450 153 
Q 2172 0 1784 0 
Q 1141 0 747 490 
Q 353 981 353 1791 
Q 353 2603 747 3093 
Q 1141 3584 1784 3584 
Q 2172 3584 2450 3431 
Q 2728 3278 2906 2969 
L 2906 3500 
L 3481 3500 
L 3481 434 
z
" transform="scale(0.015625)"/>
      <path id="DejaVuSans-b7" d="M 684 2619 
L 1344 2619 
L 1344 1825 
L 684 1825 
L 684 2619 
z
" transform="scale(0.015625)"/>
      <path id="DejaVuSans-79" d="M 2059 -325 
Q 1816 -950 1584 -1140 
Q 1353 -1331 966 -1331 
L 506 -1331 
L 506 -850 
L 844 -850 
Q 1081 -850 1212 -737 
Q 1344 -625 1503 -206 
L 1606 56 
L 191 3500 
L 800 3500 
L 1894 763 
L 2988 3500 
L 3597 3500 
L 2059 -325 
z
" transform="scale(0.015625)"/>
     </defs>
     <use xlink:href="#DejaVuSans-57"/>
     <use xlink:href="#DejaVuSans-61" transform="translate(92.501953 0)"/>
     <use xlink:href="#DejaVuSans-6c" transform="translate(153.78125 0)"/>
     <use xlink:href="#DejaVuSans-6c" transform="translate(181.564453 0)"/>
     <use xlink:href="#DejaVuSans-2d" transform="translate(209.347656 0)"/>
     <use xlink:href="#DejaVuSans-63" transform="translate(245.431641 0)"/>
     <use xlink:href="#DejaVuSans-6c" transform="translate(300.412109 0)"/>
     <use xlink:href="#DejaVuSans-6f" transform="translate(328.195312 0)"/>
     <use xlink:href="#DejaVuSans-63" transform="translate(389.376953 0)"/>
     <use xlink:href="#DejaVuSans-6b" transform="translate(444.357422 0)"/>
     <use xlink:href="#DejaVuSans-20" transform="translate(502.267578 0)"/>
     <use xlink:href="#DejaVuSans-70" transform="translate(534.054688 0)"/>
     <use xlink:href="#DejaVuSans-65" transform="translate(597.53125 0)"/>
     <use xlink:href="#DejaVuSans-72" transform="translate(659.054688 0)"/>
     <use xlink:href="#DejaVuSans-20" transform="translate(700.167969 0)"/>
     <use xlink:href="#DejaVuSans-6f" transform="translate(731.955078 0)"/>
     <use xlink:href="#DejaVuSans-70" transform="translate(793.136719 0)"/>
     <use xlink:href="#DejaVuSans-65" transform="translate(856.613281 0)"/>
     <use xlink:href="#DejaVuSans-72" transform="translate(918.136719 0)"/>
     <use xlink:href="#DejaVuSans-61" transform="translate(959.25 0)"/>
     <use xlink:href="#DejaVuSans-74" transform="translate(1020.529297 0)"/>
     <use xlink:href="#DejaVuSans-69" transform="translate(1059.738281 0)"/>
     <use xlink:href="#DejaVuSans-6f" transform="translate(1087.521484 0)"/>
     <use xlink:href="#DejaVuSans-6e" transform="translate(1148.703125 0)"/>
     <use xlink:href="#DejaVuSans-2c" transform="translate(1212.082031 0)"/>
     <use xlink:href="#DejaVuSans-20" transform="translate(1243.869141 0)"/>
     <use xlink:href="#DejaVuSans-69" transform="translate(1275.65625 0)"/>
     <use xlink:href="#DejaVuSans-6e" transform="translate(1303.439453 0)"/>
     <use xlink:href="#DejaVuSans-63" transform="translate(1366.818359 0)"/>
     <use xlink:href="#DejaVuSans-72" transform="translate(1421.798828 0)"/>
     <use xlink:href="#DejaVuSans-65" transform="translate(1460.662109 0)"/>
     <use xlink:href="#DejaVuSans-61" transform="translate(1522.185547 0)"/>
     <use xlink:href="#DejaVuSans-73" transform="translate(1583.464844 0)"/>
     <use xlink:href="#DejaVuSans-69" transform="translate(1635.564453 0)"/>
     <use xlink:href="#DejaVuSans-6e" transform="translate(1663.347656 0)"/>
     <use xlink:href="#DejaVuSans-67" transform="translate(1726.726562 0)"/>
     <use xlink:href="#DejaVuSans-20" transform="translate(1790.203125 0)"/>
     <use xlink:href="#DejaVuSans-4e" transform="translate(1821.990234 0)"/>
     <use xlink:href="#DejaVuSans-20" transform="translate(1896.794922 0)"/>
     <use xlink:href="#DejaVuSans-b7" transform="translate(1928.582031 0)"/>
     <use xlink:href="#DejaVuSans-20" transform="translate(1960.369141 0)"/>
     <use xlink:href="#DejaVuSans-6c" transform="translate(1992.15625 0)"/>
     <use xlink:href="#DejaVuSans-6f" transform="translate(2019.939453 0)"/>
     <use xlink:href="#DejaVuSans-67" transform="translate(2081.121094 0)"/>
     <use xlink:href="#DejaVuSans-2d" transform="translate(2144.597656 0)"/>
     <use xlink:href="#DejaVuSans-79" transform="translate(2178.931641 0)"/>
    </g>
   </g>
   <g id="legend_1">
    <g id="patch_7">
     <path d="M 51.310313 67.185781 
L 194.884062 67.185781 
Q 196.484062 67.185781 196.484062 65.585781 
L 196.484062 31.158281 
Q 196.484062 29.558281 194.884062 29.558281 
L 51.310313 29.558281 
Q 49.710313 29.558281 49.710313 31.158281 
L 49.710313 65.585781 
Q 49.710313 67.185781 51.310313 67.185781 
z
" style="fill: #ffffff; opacity: 0.9; stroke: #d8d2c4; stroke-linejoin: miter"/>
    </g>
    <g id="line2d_67">
     <path d="M 52.910313 36.037031 
L 60.910313 36.037031 
L 68.910313 36.037031 
" style="fill: none; stroke: #8e44ad; stroke-width: 2; stroke-linecap: square"/>
     <g>
      <use xlink:href="#m6819ad9b0c" x="60.910313" y="36.037031" style="fill: #8e44ad; stroke: #8e44ad"/>
     </g>
    </g>
    <g id="text_15">
     <!-- QAOA sim · per energy eval -->
     <g transform="translate(75.310313 38.837031) scale(0.08 -0.08)">
      <defs>
       <path id="DejaVuSans-51" d="M 2522 4238 
Q 1834 4238 1429 3725 
Q 1025 3213 1025 2328 
Q 1025 1447 1429 934 
Q 1834 422 2522 422 
Q 3209 422 3611 934 
Q 4013 1447 4013 2328 
Q 4013 3213 3611 3725 
Q 3209 4238 2522 4238 
z
M 3406 84 
L 4238 -825 
L 3475 -825 
L 2784 -78 
Q 2681 -84 2626 -87 
Q 2572 -91 2522 -91 
Q 1538 -91 948 567 
Q 359 1225 359 2328 
Q 359 3434 948 4092 
Q 1538 4750 2522 4750 
Q 3503 4750 4090 4092 
Q 4678 3434 4678 2328 
Q 4678 1516 4351 937 
Q 4025 359 3406 84 
z
" transform="scale(0.015625)"/>
       <path id="DejaVuSans-41" d="M 2188 4044 
L 1331 1722 
L 3047 1722 
L 2188 4044 
z
M 1831 4666 
L 2547 4666 
L 4325 0 
L 3669 0 
L 3244 1197 
L 1141 1197 
L 716 0 
L 50 0 
L 1831 4666 
z
" transform="scale(0.015625)"/>
       <path id="DejaVuSans-4f" d="M 2522 4238 
Q 1834 4238 1429 3725 
Q 1025 3213 1025 2328 
Q 1025 1447 1429 934 
Q 1834 422 2522 422 
Q 3209 422 3611 934 
Q 4013 1447 4013 2328 
Q 4013 3213 3611 3725 
Q 3209 4238 2522 4238 
z
M 2522 4750 
Q 3503 4750 4090 4092 
Q 4678 3434 4678 2328 
Q 4678 1225 4090 567 
Q 3503 -91 2522 -91 
Q 1538 -91 948 565 
Q 359 1222 359 2328 
Q 359 3434 948 4092 
Q 1538 4750 2522 4750 
z
" transform="scale(0.015625)"/>
       <path id="DejaVuSans-6d" d="M 3328 2828 
Q 3544 3216 3844 3400 
Q 4144 3584 4550 3584 
Q 5097 3584 5394 3201 
Q 5691 2819 5691 2113 
L 5691 0 
L 5113 0 
L 5113 2094 
Q 5113 2597 4934 2840 
Q 4756 3084 4391 3084 
Q 3944 3084 3684 2787 
Q 3425 2491 3425 1978 
L 3425 0 
L 2847 0 
L 2847 2094 
Q 2847 2600 2669 2842 
Q 2491 3084 2119 3084 
Q 1678 3084 1418 2786 
Q 1159 2488 1159 1978 
L 1159 0 
L 581 0 
L 581 3500 
L 1159 3500 
L 1159 2956 
Q 1356 3278 1631 3431 
Q 1906 3584 2284 3584 
Q 2666 3584 2933 3390 
Q 3200 3197 3328 2828 
z
" transform="scale(0.015625)"/>
       <path id="DejaVuSans-76" d="M 191 3500 
L 800 3500 
L 1894 563 
L 2988 3500 
L 3597 3500 
L 2284 0 
L 1503 0 
L 191 3500 
z
" transform="scale(0.015625)"/>
      </defs>
      <use xlink:href="#DejaVuSans-51"/>
      <use xlink:href="#DejaVuSans-41" transform="translate(78.710938 0)"/>
      <use xlink:href="#DejaVuSans-4f" transform="translate(145.369141 0)"/>
      <use xlink:href="#DejaVuSans-41" transform="translate(222.330078 0)"/>
      <use xlink:href="#DejaVuSans-20" transform="translate(290.738281 0)"/>
      <use xlink:href="#DejaVuSans-73" transform="translate(322.525391 0)"/>
      <use xlink:href="#DejaVuSans-69" transform="translate(374.625 0)"/>
      <use xlink:href="#DejaVuSans-6d" transform="translate(402.408203 0)"/>
      <use xlink:href="#DejaVuSans-20" transform="translate(499.820312 0)"/>
      <use xlink:href="#DejaVuSans-b7" transform="translate(531.607422 0)"/>
      <use xlink:href="#DejaVuSans-20" transform="translate(563.394531 0)"/>
      <use xlink:href="#DejaVuSans-70" transform="translate(595.181641 0)"/>
      <use xlink:href="#DejaVuSans-65" transform="translate(658.658203 0)"/>
      <use xlink:href="#DejaVuSans-72" transform="translate(720.181641 0)"/>
      <use xlink:href="#DejaVuSans-20" transform="translate(761.294922 0)"/>
      <use xlink:href="#DejaVuSans-65" transform="translate(793.082031 0)"/>
      <use xlink:href="#DejaVuSans-6e" transform="translate(854.605469 0)"/>
      <use xlink:href="#DejaVuSans-65" transform="translate(917.984375 0)"/>
      <use xlink:href="#DejaVuSans-72" transform="translate(979.507812 0)"/>
      <use xlink:href="#DejaVuSans-67" transform="translate(1018.871094 0)"/>
      <use xlink:href="#DejaVuSans-79" transform="translate(1082.347656 0)"/>
      <use xlink:href="#DejaVuSans-20" transform="translate(1141.527344 0)"/>
      <use xlink:href="#DejaVuSans-65" transform="translate(1173.314453 0)"/>
      <use xlink:href="#DejaVuSans-76" transform="translate(1234.837891 0)"/>
      <use xlink:href="#DejaVuSans-61" transform="translate(1294.017578 0)"/>
      <use xlink:href="#DejaVuSans-6c" transform="translate(1355.296875 0)"/>
     </g>
    </g>
    <g id="line2d_68">
     <path d="M 52.910313 47.779531 
L 60.910313 47.779531 
L 68.910313 47.779531 
" style="fill: none; stroke: #0e7490; stroke-width: 2; stroke-linecap: square"/>
     <g>
      <use xlink:href="#mce9a734c43" x="60.910313" y="47.779531" style="fill: #0e7490; stroke: #0e7490"/>
     </g>
    </g>
    <g id="text_16">
     <!-- SA · per spin-flip -->
     <g transform="translate(75.310313 50.579531) scale(0.08 -0.08)">
      <defs>
       <path id="DejaVuSans-53" d="M 3425 4513 
L 3425 3897 
Q 3066 4069 2747 4153 
Q 2428 4238 2131 4238 
Q 1616 4238 1336 4038 
Q 1056 3838 1056 3469 
Q 1056 3159 1242 3001 
Q 1428 2844 1947 2747 
L 2328 2669 
Q 3034 2534 3370 2195 
Q 3706 1856 3706 1288 
Q 3706 609 3251 259 
Q 2797 -91 1919 -91 
Q 1588 -91 1214 -16 
Q 841 59 441 206 
L 441 856 
Q 825 641 1194 531 
Q 1563 422 1919 422 
Q 2459 422 2753 634 
Q 3047 847 3047 1241 
Q 3047 1584 2836 1778 
Q 2625 1972 2144 2069 
L 1759 2144 
Q 1053 2284 737 2584 
Q 422 2884 422 3419 
Q 422 4038 858 4394 
Q 1294 4750 2059 4750 
Q 2388 4750 2728 4690 
Q 3069 4631 3425 4513 
z
" transform="scale(0.015625)"/>
       <path id="DejaVuSans-66" d="M 2375 4863 
L 2375 4384 
L 1825 4384 
Q 1516 4384 1395 4259 
Q 1275 4134 1275 3809 
L 1275 3500 
L 2222 3500 
L 2222 3053 
L 1275 3053 
L 1275 0 
L 697 0 
L 697 3053 
L 147 3053 
L 147 3500 
L 697 3500 
L 697 3744 
Q 697 4328 969 4595 
Q 1241 4863 1831 4863 
L 2375 4863 
z
" transform="scale(0.015625)"/>
      </defs>
      <use xlink:href="#DejaVuSans-53"/>
      <use xlink:href="#DejaVuSans-41" transform="translate(65.351562 0)"/>
      <use xlink:href="#DejaVuSans-20" transform="translate(133.759766 0)"/>
      <use xlink:href="#DejaVuSans-b7" transform="translate(165.546875 0)"/>
      <use xlink:href="#DejaVuSans-20" transform="translate(197.333984 0)"/>
      <use xlink:href="#DejaVuSans-70" transform="translate(229.121094 0)"/>
      <use xlink:href="#DejaVuSans-65" transform="translate(292.597656 0)"/>
      <use xlink:href="#DejaVuSans-72" transform="translate(354.121094 0)"/>
      <use xlink:href="#DejaVuSans-20" transform="translate(395.234375 0)"/>
      <use xlink:href="#DejaVuSans-73" transform="translate(427.021484 0)"/>
      <use xlink:href="#DejaVuSans-70" transform="translate(479.121094 0)"/>
      <use xlink:href="#DejaVuSans-69" transform="translate(542.597656 0)"/>
      <use xlink:href="#DejaVuSans-6e" transform="translate(570.380859 0)"/>
      <use xlink:href="#DejaVuSans-2d" transform="translate(633.759766 0)"/>
      <use xlink:href="#DejaVuSans-66" transform="translate(669.84375 0)"/>
      <use xlink:href="#DejaVuSans-6c" transform="translate(705.048828 0)"/>
      <use xlink:href="#DejaVuSans-69" transform="translate(732.832031 0)"/>
      <use xlink:href="#DejaVuSans-70" transform="translate(760.615234 0)"/>
     </g>
    </g>
    <g id="line2d_69">
     <path d="M 52.910313 59.522031 
L 60.910313 59.522031 
L 68.910313 59.522031 
" style="fill: none; stroke-dasharray: 7.4,3.2; stroke-dashoffset: 0; stroke: #4a8c3f; stroke-width: 2"/>
     <g>
      <use xlink:href="#mc4d2644c9f" x="60.910313" y="59.522031" style="fill: #4a8c3f; stroke: #4a8c3f"/>
     </g>
    </g>
    <g id="text_17">
     <!-- brute force · full enumeration -->
     <g transform="translate(75.310313 62.322031) scale(0.08 -0.08)">
      <use xlink:href="#DejaVuSans-62"/>
      <use xlink:href="#DejaVuSans-72" transform="translate(63.476562 0)"/>
      <use xlink:href="#DejaVuSans-75" transform="translate(104.589844 0)"/>
      <use xlink:href="#DejaVuSans-74" transform="translate(167.96875 0)"/>
      <use xlink:href="#DejaVuSans-65" transform="translate(207.177734 0)"/>
      <use xlink:href="#DejaVuSans-20" transform="translate(268.701172 0)"/>
      <use xlink:href="#DejaVuSans-66" transform="translate(300.488281 0)"/>
      <use xlink:href="#DejaVuSans-6f" transform="translate(335.693359 0)"/>
      <use xlink:href="#DejaVuSans-72" transform="translate(396.875 0)"/>
      <use xlink:href="#DejaVuSans-63" transform="translate(435.738281 0)"/>
      <use xlink:href="#DejaVuSans-65" transform="translate(490.71875 0)"/>
      <use xlink:href="#DejaVuSans-20" transform="translate(552.242188 0)"/>
      <use xlink:href="#DejaVuSans-b7" transform="translate(584.029297 0)"/>
      <use xlink:href="#DejaVuSans-20" transform="translate(615.816406 0)"/>
      <use xlink:href="#DejaVuSans-66" transform="translate(647.603516 0)"/>
      <use xlink:href="#DejaVuSans-75" transform="translate(682.808594 0)"/>
      <use xlink:href="#DejaVuSans-6c" transform="translate(746.1875 0)"/>
      <use xlink:href="#DejaVuSans-6c" transform="translate(773.970703 0)"/>
      <use xlink:href="#DejaVuSans-20" transform="translate(801.753906 0)"/>
      <use xlink:href="#DejaVuSans-65" transform="translate(833.541016 0)"/>
      <use xlink:href="#DejaVuSans-6e" transform="translate(895.064453 0)"/>
      <use xlink:href="#DejaVuSans-75" transform="translate(958.443359 0)"/>
      <use xlink:href="#DejaVuSans-6d" transform="translate(1021.822266 0)"/>
      <use xlink:href="#DejaVuSans-65" transform="translate(1119.234375 0)"/>
      <use xlink:href="#DejaVuSans-72" transform="translate(1180.757812 0)"/>
      <use xlink:href="#DejaVuSans-61" transform="translate(1221.871094 0)"/>
      <use xlink:href="#DejaVuSans-74" transform="translate(1283.150391 0)"/>
      <use xlink:href="#DejaVuSans-69" transform="translate(1322.359375 0)"/>
      <use xlink:href="#DejaVuSans-6f" transform="translate(1350.142578 0)"/>
      <use xlink:href="#DejaVuSans-6e" transform="translate(1411.324219 0)"/>
     </g>
    </g>
   </g>
  </g>
 </g>
 <defs>
  <clipPath id="p6b476372a2">
   <rect x="45.710313" y="25.558281" width="495.489207" height="207.388426"/>
  </clipPath>
 </defs>
</svg>
